<svg width="1397" height="1735" viewBox="0 0 1397 1735" fill="none" xmlns="http://www.w3.org/2000/svg">
<mask id="mask0_1_208" style="mask-type:alpha" maskUnits="userSpaceOnUse" x="-14" y="0" width="1548" height="1735">
<rect x="616.74" y="0.809784" width="1020.34" height="1430.15" transform="rotate(26.1152 616.74 0.809784)" fill="url(#paint0_linear_1_208)" stroke="#00C9B7" stroke-width="1.21036"/>
</mask>
<g mask="url(#mask0_1_208)">
<path d="M1108.39 1823.27C973.546 2429.74 662.203 2703.11 413.049 2433.82C386.918 2405.58 362.415 2372.39 339.758 2335.07C572.041 2476.16 834.075 2200.25 954.804 1657.27C1075.53 1114.29 1013.91 488.857 821.108 170.216C848.366 186.845 875.274 209.219 901.405 237.462C1150.56 506.754 1243.24 1216.8 1108.39 1823.27Z" fill="url(#paint1_linear_1_208)" stroke="#00C9B7" stroke-width="1.89058" stroke-miterlimit="10"/>
<g filter="url(#filter0_f_1_208)">
<path d="M1091.33 1804.83C956.481 2411.3 662.203 2703.11 413.049 2433.82C386.918 2405.58 362.415 2372.39 339.758 2335.07C572.041 2476.16 851.14 2218.69 971.87 1675.72C1092.6 1132.74 1013.91 488.857 821.108 170.216C848.366 186.845 875.274 209.219 901.405 237.462C1150.56 506.754 1226.17 1198.36 1091.33 1804.83Z" fill="url(#paint2_linear_1_208)"/>
<path d="M1091.33 1804.83C956.481 2411.3 662.203 2703.11 413.049 2433.82C386.918 2405.58 362.415 2372.39 339.758 2335.07C572.041 2476.16 851.14 2218.69 971.87 1675.72C1092.6 1132.74 1013.91 488.857 821.108 170.216C848.366 186.845 875.274 209.219 901.405 237.462C1150.56 506.754 1226.17 1198.36 1091.33 1804.83Z" stroke="#00C9B7" stroke-width="1.89058" stroke-miterlimit="10"/>
</g>
<g filter="url(#filter1_f_1_208)">
<path d="M1082.79 1795.61C947.948 2402.07 640.955 2703.48 391.801 2434.19C365.669 2405.95 341.167 2372.76 318.51 2335.43C550.792 2476.53 859.673 2227.91 980.403 1684.94C1101.13 1141.96 990.993 466.999 798.186 148.359C825.445 164.987 852.353 187.361 878.484 215.604C1127.64 484.896 1217.64 1189.14 1082.79 1795.61Z" fill="url(#paint3_linear_1_208)"/>
<path d="M1082.79 1795.61C947.948 2402.07 640.955 2703.48 391.801 2434.19C365.669 2405.95 341.167 2372.76 318.51 2335.43C550.792 2476.53 859.673 2227.91 980.403 1684.94C1101.13 1141.96 990.993 466.999 798.186 148.359C825.445 164.987 852.353 187.361 878.484 215.604C1127.64 484.896 1217.64 1189.14 1082.79 1795.61Z" stroke="#00C9B7" stroke-width="1.89058" stroke-miterlimit="10"/>
</g>
<g filter="url(#filter2_f_1_208)">
<path d="M1082.79 1795.61C947.948 2402.07 640.955 2703.48 391.801 2434.19C365.669 2405.95 341.167 2372.76 318.51 2335.43C550.792 2476.53 859.673 2227.91 980.403 1684.94C1101.13 1141.96 990.993 466.999 798.186 148.359C825.445 164.987 852.353 187.361 878.484 215.604C1127.64 484.896 1217.64 1189.14 1082.79 1795.61Z" fill="url(#paint4_linear_1_208)"/>
<path d="M1082.79 1795.61C947.948 2402.07 640.955 2703.48 391.801 2434.19C365.669 2405.95 341.167 2372.76 318.51 2335.43C550.792 2476.53 859.673 2227.91 980.403 1684.94C1101.13 1141.96 990.993 466.999 798.186 148.359C825.445 164.987 852.353 187.361 878.484 215.604C1127.64 484.896 1217.64 1189.14 1082.79 1795.61Z" stroke="#00C9B7" stroke-width="1.89058" stroke-miterlimit="10"/>
</g>
<g filter="url(#filter3_f_1_208)">
<path d="M1082.79 1795.61C947.948 2402.07 640.955 2703.48 391.801 2434.19C365.669 2405.95 341.167 2372.76 318.51 2335.43C550.792 2476.53 859.673 2227.91 980.403 1684.94C1101.13 1141.96 990.993 466.999 798.186 148.359C825.445 164.987 852.353 187.361 878.484 215.604C1127.64 484.896 1217.64 1189.14 1082.79 1795.61Z" fill="url(#paint5_linear_1_208)"/>
<path d="M1082.79 1795.61C947.948 2402.07 640.955 2703.48 391.801 2434.19C365.669 2405.95 341.167 2372.76 318.51 2335.43C550.792 2476.53 859.673 2227.91 980.403 1684.94C1101.13 1141.96 990.993 466.999 798.186 148.359C825.445 164.987 852.353 187.361 878.484 215.604C1127.64 484.896 1217.64 1189.14 1082.79 1795.61Z" stroke="#00C9B7" stroke-width="1.89058" stroke-miterlimit="10"/>
</g>
<g filter="url(#filter4_f_1_208)">
<path d="M1027.24 1783.68C892.391 2390.15 640.955 2703.48 391.801 2434.19C365.669 2405.95 341.167 2372.76 318.51 2335.43C550.792 2476.53 883.995 2273.22 1008.13 1714.91C1163.68 1015.37 990.993 466.999 798.186 148.359C825.445 164.987 852.353 187.361 878.484 215.604C1127.64 484.896 1162.08 1177.21 1027.24 1783.68Z" fill="url(#paint6_linear_1_208)"/>
<path d="M1027.24 1783.68C892.391 2390.15 640.955 2703.48 391.801 2434.19C365.669 2405.95 341.167 2372.76 318.51 2335.43C550.792 2476.53 883.995 2273.22 1008.13 1714.91C1163.68 1015.37 990.993 466.999 798.186 148.359C825.445 164.987 852.353 187.361 878.484 215.604C1127.64 484.896 1162.08 1177.21 1027.24 1783.68Z" stroke="#00C9B7" stroke-width="1.89058" stroke-miterlimit="10"/>
</g>
<g filter="url(#filter5_f_1_208)">
<path d="M1027.24 1783.68C892.391 2390.15 652.269 2822.17 403.114 2552.88C376.983 2524.63 320.338 2296.87 297.681 2259.55C529.963 2400.64 883.995 2273.22 1008.13 1714.91C1163.68 1015.37 952.438 500.579 759.632 181.938C747.449 236.73 838.886 60.5127 865.017 88.756C1114.17 358.048 1162.09 1177.21 1027.24 1783.68Z" fill="url(#paint7_linear_1_208)"/>
<path d="M1027.24 1783.68C892.391 2390.15 652.269 2822.17 403.114 2552.88C376.983 2524.63 320.338 2296.87 297.681 2259.55C529.963 2400.64 883.995 2273.22 1008.13 1714.91C1163.68 1015.37 952.438 500.579 759.632 181.938C747.449 236.73 838.886 60.5127 865.017 88.756C1114.17 358.048 1162.09 1177.21 1027.24 1783.68Z" stroke="#00C9B7" stroke-width="1.89058" stroke-miterlimit="10"/>
</g>
<g filter="url(#filter6_f_1_208)">
<path d="M1027.24 1783.68C892.391 2390.15 652.269 2822.17 403.114 2552.88C376.983 2524.63 320.338 2296.87 297.681 2259.55C529.963 2400.64 883.995 2273.22 1008.13 1714.91C1163.68 1015.37 952.438 500.579 759.632 181.938C747.449 236.73 838.886 60.5127 865.017 88.756C1114.17 358.048 1162.09 1177.21 1027.24 1783.68Z" fill="url(#paint8_linear_1_208)"/>
<path d="M1027.24 1783.68C892.391 2390.15 652.269 2822.17 403.114 2552.88C376.983 2524.63 320.338 2296.87 297.681 2259.55C529.963 2400.64 883.995 2273.22 1008.13 1714.91C1163.68 1015.37 952.438 500.579 759.632 181.938C747.449 236.73 838.886 60.5127 865.017 88.756C1114.17 358.048 1162.09 1177.21 1027.24 1783.68Z" stroke="#00C9B7" stroke-width="1.89058" stroke-miterlimit="10"/>
</g>
<g filter="url(#filter7_f_1_208)">
<path d="M1027.24 1783.68C892.391 2390.15 652.269 2822.17 403.114 2552.88C376.983 2524.63 320.338 2296.87 297.681 2259.55C529.963 2400.64 883.995 2273.22 1008.13 1714.91C1163.68 1015.37 952.438 500.579 759.632 181.938C747.449 236.73 838.886 60.5127 865.017 88.756C1114.17 358.048 1162.09 1177.21 1027.24 1783.68Z" fill="url(#paint9_linear_1_208)"/>
<path d="M1027.24 1783.68C892.391 2390.15 652.269 2822.17 403.114 2552.88C376.983 2524.63 320.338 2296.87 297.681 2259.55C529.963 2400.64 883.995 2273.22 1008.13 1714.91C1163.68 1015.37 952.438 500.579 759.632 181.938C747.449 236.73 838.886 60.5127 865.017 88.756C1114.17 358.048 1162.09 1177.21 1027.24 1783.68Z" stroke="#00C9B7" stroke-width="1.89058" stroke-miterlimit="10"/>
</g>
</g>
<defs>
<filter id="filter0_f_1_208" x="322.92" y="153.192" width="849.675" height="2396.95" filterUnits="userSpaceOnUse" color-interpolation-filters="sRGB">
<feFlood flood-opacity="0" result="BackgroundImageFix"/>
<feBlend mode="normal" in="SourceGraphic" in2="BackgroundImageFix" result="shape"/>
<feGaussianBlur stdDeviation="7.26216" result="effect1_foregroundBlur_1_208"/>
</filter>
<filter id="filter1_f_1_208" x="272.62" y="102.282" width="916.98" height="2475.76" filterUnits="userSpaceOnUse" color-interpolation-filters="sRGB">
<feFlood flood-opacity="0" result="BackgroundImageFix"/>
<feBlend mode="normal" in="SourceGraphic" in2="BackgroundImageFix" result="shape"/>
<feGaussianBlur stdDeviation="21.7865" result="effect1_foregroundBlur_1_208"/>
</filter>
<filter id="filter2_f_1_208" x="253.251" y="82.9131" width="955.717" height="2514.49" filterUnits="userSpaceOnUse" color-interpolation-filters="sRGB">
<feFlood flood-opacity="0" result="BackgroundImageFix"/>
<feBlend mode="normal" in="SourceGraphic" in2="BackgroundImageFix" result="shape"/>
<feGaussianBlur stdDeviation="31.4693" result="effect1_foregroundBlur_1_208"/>
</filter>
<filter id="filter3_f_1_208" x="253.251" y="82.9131" width="955.717" height="2514.49" filterUnits="userSpaceOnUse" color-interpolation-filters="sRGB">
<feFlood flood-opacity="0" result="BackgroundImageFix"/>
<feBlend mode="normal" in="SourceGraphic" in2="BackgroundImageFix" result="shape"/>
<feGaussianBlur stdDeviation="31.4693" result="effect1_foregroundBlur_1_208"/>
</filter>
<filter id="filter4_f_1_208" x="166.093" y="-4.24512" width="1089.82" height="2686.97" filterUnits="userSpaceOnUse" color-interpolation-filters="sRGB">
<feFlood flood-opacity="0" result="BackgroundImageFix"/>
<feBlend mode="normal" in="SourceGraphic" in2="BackgroundImageFix" result="shape"/>
<feGaussianBlur stdDeviation="75.0423" result="effect1_foregroundBlur_1_208"/>
</filter>
<filter id="filter5_f_1_208" x="203.369" y="-7.48721" width="990.262" height="2735.28" filterUnits="userSpaceOnUse" color-interpolation-filters="sRGB">
<feFlood flood-opacity="0" result="BackgroundImageFix"/>
<feBlend mode="normal" in="SourceGraphic" in2="BackgroundImageFix" result="shape"/>
<feGaussianBlur stdDeviation="45.9937" result="effect1_foregroundBlur_1_208"/>
</filter>
<filter id="filter6_f_1_208" x="96.8424" y="-114.014" width="1203.32" height="2948.33" filterUnits="userSpaceOnUse" color-interpolation-filters="sRGB">
<feFlood flood-opacity="0" result="BackgroundImageFix"/>
<feBlend mode="normal" in="SourceGraphic" in2="BackgroundImageFix" result="shape"/>
<feGaussianBlur stdDeviation="99.2495" result="effect1_foregroundBlur_1_208"/>
</filter>
<filter id="filter7_f_1_208" x="-6.10438e-05" y="-210.856" width="1397" height="3142.01" filterUnits="userSpaceOnUse" color-interpolation-filters="sRGB">
<feFlood flood-opacity="0" result="BackgroundImageFix"/>
<feBlend mode="normal" in="SourceGraphic" in2="BackgroundImageFix" result="shape"/>
<feGaussianBlur stdDeviation="147.664" result="effect1_foregroundBlur_1_208"/>
</filter>
<linearGradient id="paint0_linear_1_208" x1="1127.24" y1="0" x2="1127.24" y2="1431.36" gradientUnits="userSpaceOnUse">
<stop stop-color="#C4C4C4" stop-opacity="0"/>
<stop offset="0.380208" stop-color="#C4C4C4"/>
<stop offset="0.578125" stop-color="#C4C4C4"/>
<stop offset="1" stop-color="#C4C4C4" stop-opacity="0"/>
</linearGradient>
<linearGradient id="paint1_linear_1_208" x1="1088.59" y1="439.777" x2="-269.399" y2="1696.22" gradientUnits="userSpaceOnUse">
<stop stop-color="#00C9B7"/>
<stop offset="1" stop-color="#1C273A"/>
</linearGradient>
<linearGradient id="paint2_linear_1_208" x1="1080.06" y1="430.554" x2="-277.932" y2="1686.99" gradientUnits="userSpaceOnUse">
<stop stop-color="#00C9B7"/>
<stop offset="1" stop-color="#1C273A"/>
</linearGradient>
<linearGradient id="paint3_linear_1_208" x1="1064.07" y1="416.19" x2="-304.097" y2="1682.05" gradientUnits="userSpaceOnUse">
<stop stop-color="#00C9B7"/>
<stop offset="1" stop-color="#1C273A"/>
</linearGradient>
<linearGradient id="paint4_linear_1_208" x1="1064.07" y1="416.19" x2="-304.097" y2="1682.05" gradientUnits="userSpaceOnUse">
<stop stop-color="#00C9B7"/>
<stop offset="1" stop-color="#1C273A"/>
</linearGradient>
<linearGradient id="paint5_linear_1_208" x1="1064.07" y1="416.19" x2="-304.097" y2="1682.05" gradientUnits="userSpaceOnUse">
<stop stop-color="#00C9B7"/>
<stop offset="1" stop-color="#1C273A"/>
</linearGradient>
<linearGradient id="paint6_linear_1_208" x1="1040.6" y1="390.828" x2="-327.562" y2="1656.68" gradientUnits="userSpaceOnUse">
<stop stop-color="#00C9B7"/>
<stop offset="1" stop-color="#1C273A"/>
</linearGradient>
<linearGradient id="paint7_linear_1_208" x1="1048.2" y1="286.748" x2="-429.011" y2="1653.5" gradientUnits="userSpaceOnUse">
<stop stop-color="#00C9B7"/>
<stop offset="1" stop-color="#1C273A"/>
</linearGradient>
<linearGradient id="paint8_linear_1_208" x1="1048.2" y1="286.748" x2="-429.011" y2="1653.5" gradientUnits="userSpaceOnUse">
<stop stop-color="#00C9B7"/>
<stop offset="1" stop-color="#1C273A"/>
</linearGradient>
<linearGradient id="paint9_linear_1_208" x1="1048.2" y1="286.748" x2="-429.011" y2="1653.5" gradientUnits="userSpaceOnUse">
<stop stop-color="#00C9B7"/>
<stop offset="1" stop-color="#1C273A"/>
</linearGradient>
</defs>
</svg>