<svg width="693" height="393" viewBox="0 0 693 393" fill="none" xmlns="http://www.w3.org/2000/svg">
<g filter="url(#filter0_f_1_222)">
<mask id="mask0_1_222" style="mask-type:alpha" maskUnits="userSpaceOnUse" x="0" y="-121" width="693" height="509">
<path opacity="0.8" d="M0.702159 165.949L148.913 386.352L449.785 293.866L691.712 -119.783L458.843 -90.6088L398.02 -97.049L33.371 110.091L0.702159 165.949Z" fill="url(#paint0_linear_1_222)" stroke="#00C9B7" stroke-width="1.18963"/>
</mask>
<g mask="url(#mask0_1_222)">
<g opacity="0.8">
<path d="M121.262 1276.25C106.454 1262.41 92.705 1245.08 79.4559 1225.42C120.843 1276.91 171.027 1271.31 220.812 1233.13C275.933 1190.86 330.722 1108.56 372.867 1018.84C492.001 765.573 554.718 372.714 487.953 9.00557C511.267 47.8113 529.535 106.709 543.936 172.311C558.531 238.799 569.129 312.057 576.983 378.003C584.837 443.948 589.944 502.54 593.565 539.727C594.47 549.021 595.283 556.984 596.023 563.389C596.762 569.779 597.432 574.664 598.057 577.781C598.364 579.311 598.684 580.543 599.038 581.308C599.223 581.706 599.457 582.063 599.731 582.191C600.007 582.32 600.231 582.175 600.405 581.932C600.735 581.468 601.009 580.465 601.257 579.065C601.5 577.694 601.733 575.843 601.962 573.499L654.247 544.655C652.284 575.392 653.354 593.625 655.639 605.491C657.972 617.604 661.567 623.031 664.285 628.113C665.638 630.644 666.755 633.05 667.463 636.167C668.171 639.288 668.491 643.225 668.136 648.819C667.425 660.038 664.023 677.635 655.933 708.131C654.087 715.091 649.477 726.262 642.758 740.609C636.047 754.941 627.253 772.401 617.058 791.925C596.669 830.972 570.689 878.263 544.601 925.279C518.516 972.293 492.321 1019.03 471.508 1056.98C450.727 1094.86 435.285 1124.01 430.681 1135.9C334.332 1312.6 217.324 1366.5 121.263 1276.25L121.262 1276.25Z" fill="#1C273A" stroke="#00C9B7" stroke-width="1.18963"/>
<g filter="url(#filter1_f_1_222)">
<path d="M630.631 516.954C622.298 643.147 664.552 560.042 632.2 681.999C617.292 738.2 425.185 1062.58 406.91 1109.88C310.53 1286.65 193.377 1340.77 97.0797 1250.29C77.5047 1232.01 59.783 1207.63 42.6405 1179.88C129.41 1320.67 314.707 1166.93 398.965 987.575C518.294 733.891 613.672 427.044 546.326 63.065C641.85 218.845 569.909 625.587 577.505 546.263L630.631 516.954Z" fill="#1C273A"/>
<path d="M97.1648 1249.64C81.7833 1235.27 67.5441 1217.13 53.8211 1196.52C73.6429 1220.98 97.3731 1233.03 123.169 1235.19C154.116 1237.78 188.087 1226.14 221.96 1204.5C289.176 1161.55 356.079 1079.19 398.299 990.252L399.292 988.15C458.965 861.29 512.666 721.104 543.025 567.1C573.266 413.695 580.352 246.541 547.09 65.165C570.235 103.786 583.34 157.487 590.043 215.387C596.838 274.082 597.041 336.973 594.495 392.56C591.949 448.142 586.657 496.381 582.477 525.764C581.415 533.229 580.427 539.466 579.575 544.292L577.301 545.545L577.145 545.631L577.116 545.939C576.877 548.425 576.716 550.445 576.626 552.016C576.536 553.57 576.511 554.737 576.56 555.495C576.573 555.689 576.592 555.881 576.62 556.058C576.647 556.224 576.693 556.445 576.781 556.653C576.885 556.899 577.036 557.098 577.206 557.147C577.349 557.188 577.456 557.109 577.522 557.04C577.656 556.901 577.777 556.64 577.888 556.346C578.005 556.036 578.131 555.631 578.266 555.141C578.774 553.292 579.451 550.052 580.247 545.583L630.15 518.053C628.187 548.79 629.257 567.023 631.542 578.889C633.874 591.002 637.47 596.429 640.188 601.511C641.541 604.042 642.658 606.448 643.365 609.565C644.074 612.686 644.393 616.623 644.039 622.217C643.328 633.436 639.925 651.033 631.836 681.529C629.989 688.489 625.379 699.66 618.661 714.007C611.95 728.339 603.155 745.799 592.961 765.323C572.571 804.37 546.592 851.661 520.504 898.677C494.418 945.691 468.224 992.432 447.411 1030.37C426.63 1068.25 411.188 1097.41 406.584 1109.3C310.235 1286 193.227 1339.9 97.1663 1249.64L97.1648 1249.64ZM577.326 554.911C577.329 554.328 577.356 553.557 577.412 552.581C577.497 551.112 577.647 549.226 577.867 546.897L579.242 546.137C578.56 549.862 577.981 552.582 577.54 554.188C577.463 554.467 577.392 554.707 577.326 554.911Z" stroke="#00C9B7" stroke-width="1.18963"/>
</g>
<g filter="url(#filter2_f_1_222)">
<path d="M630.631 516.954C622.298 643.147 664.552 560.042 632.2 681.999C617.292 738.2 425.185 1062.58 406.91 1109.88C310.53 1286.65 193.377 1340.77 97.0797 1250.29C77.5047 1232.01 59.783 1207.63 42.6405 1179.88C129.41 1320.67 314.707 1166.93 398.965 987.575C518.294 733.891 613.672 427.044 546.326 63.065C641.85 218.845 569.909 625.587 577.505 546.263L630.631 516.954Z" fill="#1C273A"/>
<path d="M97.1648 1249.64C81.7833 1235.27 67.5441 1217.13 53.8211 1196.52C73.6429 1220.98 97.3731 1233.03 123.169 1235.19C154.116 1237.78 188.087 1226.14 221.96 1204.5C289.176 1161.55 356.079 1079.19 398.299 990.252L399.292 988.15C458.965 861.29 512.666 721.104 543.025 567.1C573.266 413.695 580.352 246.541 547.09 65.165C570.235 103.786 583.34 157.487 590.043 215.387C596.838 274.082 597.041 336.973 594.495 392.56C591.949 448.142 586.657 496.381 582.477 525.764C581.415 533.229 580.427 539.466 579.575 544.292L577.301 545.545L577.145 545.631L577.116 545.939C576.877 548.425 576.716 550.445 576.626 552.016C576.536 553.57 576.511 554.737 576.56 555.495C576.573 555.689 576.592 555.881 576.62 556.058C576.647 556.224 576.693 556.445 576.781 556.653C576.885 556.899 577.036 557.098 577.206 557.147C577.349 557.188 577.456 557.109 577.522 557.04C577.656 556.901 577.777 556.64 577.888 556.346C578.005 556.036 578.131 555.631 578.266 555.141C578.774 553.292 579.451 550.052 580.247 545.583L630.15 518.053C628.187 548.79 629.257 567.023 631.542 578.889C633.874 591.002 637.47 596.429 640.188 601.511C641.541 604.042 642.658 606.448 643.365 609.565C644.074 612.686 644.393 616.623 644.039 622.217C643.328 633.436 639.925 651.033 631.836 681.529C629.989 688.489 625.379 699.66 618.661 714.007C611.95 728.339 603.155 745.799 592.961 765.323C572.571 804.37 546.592 851.661 520.504 898.677C494.418 945.691 468.224 992.432 447.411 1030.37C426.63 1068.25 411.188 1097.41 406.584 1109.3C310.235 1286 193.227 1339.9 97.1663 1249.64L97.1648 1249.64ZM577.326 554.911C577.329 554.328 577.356 553.557 577.412 552.581C577.497 551.112 577.647 549.226 577.867 546.897L579.242 546.137C578.56 549.862 577.981 552.582 577.54 554.188C577.463 554.467 577.392 554.707 577.326 554.911Z" stroke="#00C9B7" stroke-width="1.18963"/>
</g>
<g filter="url(#filter3_f_1_222)">
<path d="M630.631 516.954C622.298 643.147 664.552 560.042 632.2 681.999C617.292 738.2 425.185 1062.58 406.91 1109.88C310.53 1286.65 193.377 1340.77 97.0797 1250.29C77.5047 1232.01 59.783 1207.63 42.6405 1179.88C129.41 1320.67 314.707 1166.93 398.965 987.575C518.294 733.891 613.672 427.044 546.326 63.065C641.85 218.845 569.909 625.587 577.505 546.263L630.631 516.954Z" fill="#1C273A"/>
<path d="M97.1648 1249.64C81.7833 1235.27 67.5441 1217.13 53.8211 1196.52C73.6429 1220.98 97.3731 1233.03 123.169 1235.19C154.116 1237.78 188.087 1226.14 221.96 1204.5C289.176 1161.55 356.079 1079.19 398.299 990.252L399.292 988.15C458.965 861.29 512.666 721.104 543.025 567.1C573.266 413.695 580.352 246.541 547.09 65.165C570.235 103.786 583.34 157.487 590.043 215.387C596.838 274.082 597.041 336.973 594.495 392.56C591.949 448.142 586.657 496.381 582.477 525.764C581.415 533.229 580.427 539.466 579.575 544.292L577.301 545.545L577.145 545.631L577.116 545.939C576.877 548.425 576.716 550.445 576.626 552.016C576.536 553.57 576.511 554.737 576.56 555.495C576.573 555.689 576.592 555.881 576.62 556.058C576.647 556.224 576.693 556.445 576.781 556.653C576.885 556.899 577.036 557.098 577.206 557.147C577.349 557.188 577.456 557.109 577.522 557.04C577.656 556.901 577.777 556.64 577.888 556.346C578.005 556.036 578.131 555.631 578.266 555.141C578.774 553.292 579.451 550.052 580.247 545.583L630.15 518.053C628.187 548.79 629.257 567.023 631.542 578.889C633.874 591.002 637.47 596.429 640.188 601.511C641.541 604.042 642.658 606.448 643.365 609.565C644.074 612.686 644.393 616.623 644.039 622.217C643.328 633.436 639.925 651.033 631.836 681.529C629.989 688.489 625.379 699.66 618.661 714.007C611.95 728.339 603.155 745.799 592.961 765.323C572.571 804.37 546.592 851.661 520.504 898.677C494.418 945.691 468.224 992.432 447.411 1030.37C426.63 1068.25 411.188 1097.41 406.584 1109.3C310.235 1286 193.227 1339.9 97.1663 1249.64L97.1648 1249.64ZM577.326 554.911C577.329 554.328 577.356 553.557 577.412 552.581C577.497 551.112 577.647 549.226 577.867 546.897L579.242 546.137C578.56 549.862 577.981 552.582 577.54 554.188C577.463 554.467 577.392 554.707 577.326 554.911Z" stroke="#00C9B7" stroke-width="1.18963"/>
</g>
<g filter="url(#filter4_f_1_222)">
<path d="M630.631 516.954C622.298 643.147 664.552 560.042 632.2 681.999C617.292 738.2 425.185 1062.58 406.91 1109.88C310.53 1286.65 193.377 1340.77 97.0797 1250.29C77.5047 1232.01 59.783 1207.63 42.6405 1179.88C129.41 1320.67 311.274 1225.03 395.531 1045.67C514.861 791.986 613.672 427.044 546.326 63.065C641.85 218.845 569.909 625.587 577.505 546.263L630.631 516.954Z" fill="#1C273A"/>
<path d="M97.1648 1249.64C82.3121 1235.77 68.5246 1218.37 55.2383 1198.64C74.6858 1222.95 97.6867 1237.72 122.596 1244.26C153.221 1252.31 186.766 1247.94 220.215 1233.56C287.11 1204.81 353.691 1136.01 395.859 1046.24C455.538 919.372 510.095 764.662 541.31 596.138C572.402 428.281 580.347 246.66 547.09 65.164C570.235 103.785 583.34 157.487 590.043 215.387C596.838 274.082 597.041 336.973 594.495 392.56C591.949 448.142 586.657 496.381 582.477 525.764C581.415 533.229 580.427 539.466 579.575 544.292L577.301 545.545L577.145 545.631L577.116 545.939C576.877 548.425 576.716 550.445 576.626 552.016C576.536 553.57 576.511 554.737 576.56 555.495C576.573 555.689 576.592 555.881 576.62 556.058C576.647 556.224 576.693 556.445 576.781 556.653C576.885 556.899 577.036 557.098 577.206 557.147C577.349 557.188 577.456 557.109 577.522 557.04C577.656 556.901 577.777 556.64 577.888 556.346C578.005 556.036 578.131 555.631 578.266 555.141C578.774 553.292 579.451 550.052 580.247 545.583L630.15 518.053C628.187 548.79 629.257 567.023 631.542 578.889C633.874 591.002 637.47 596.429 640.188 601.511C641.541 604.042 642.658 606.448 643.365 609.565C644.074 612.686 644.393 616.623 644.039 622.217C643.328 633.436 639.925 651.033 631.836 681.529C629.989 688.489 625.379 699.66 618.661 714.007C611.95 728.339 603.155 745.799 592.961 765.323C572.571 804.37 546.592 851.661 520.504 898.677C494.418 945.691 468.224 992.432 447.411 1030.37C426.63 1068.25 411.188 1097.41 406.584 1109.3C310.235 1286 193.227 1339.9 97.1663 1249.64L97.1648 1249.64ZM577.326 554.911C577.329 554.328 577.356 553.557 577.412 552.581C577.497 551.112 577.647 549.226 577.867 546.897L579.242 546.137C578.56 549.862 577.981 552.582 577.54 554.188C577.463 554.467 577.392 554.707 577.326 554.911Z" stroke="#00C9B7" stroke-width="1.18963"/>
</g>
<g filter="url(#filter5_f_1_222)">
<path d="M630.631 516.954C622.297 643.147 664.552 560.042 632.2 682C617.291 738.201 425.184 1062.58 406.91 1109.88C310.53 1286.65 193.377 1340.77 97.0794 1250.29C77.5043 1232.01 51.5581 1210.82 34.4156 1183.07C121.185 1323.86 307.572 1235.89 391.83 1056.53C511.159 802.848 613.672 427.045 546.325 63.0653C641.849 218.846 569.909 625.587 577.505 546.263L630.631 516.954Z" fill="#1C273A"/>
<path d="M73.4663 1227.85C86.437 1237.66 100.418 1244.51 115.074 1248.65C146.122 1257.41 180.231 1254 214.246 1240.59C281.741 1213.96 348.929 1147.92 391.164 1059.21L392.157 1057.11C451.836 930.232 507.318 772.808 539.459 601.571C571.472 431.014 580.339 246.686 547.089 65.1637C570.234 103.785 583.339 157.487 590.042 215.388C596.838 274.083 597.04 336.974 594.494 392.561C591.949 448.142 586.656 496.381 582.477 525.764C581.415 533.229 580.426 539.465 579.575 544.291L577.301 545.544L577.145 545.631L577.115 545.939C576.877 548.426 576.716 550.445 576.625 552.017C576.536 553.57 576.511 554.736 576.56 555.494C576.572 555.689 576.591 555.881 576.62 556.058C576.647 556.224 576.693 556.445 576.781 556.654C576.885 556.9 577.036 557.098 577.206 557.147C577.349 557.188 577.456 557.109 577.522 557.04C577.656 556.902 577.777 556.64 577.888 556.346C578.004 556.037 578.13 555.632 578.265 555.141C578.773 553.292 579.45 550.052 580.246 545.584L630.15 518.053C628.186 548.791 629.256 567.023 631.541 578.89C633.874 591.002 637.469 596.43 640.187 601.512C641.541 604.043 642.658 606.448 643.365 609.565C644.073 612.687 644.393 616.624 644.038 622.217C643.327 633.436 639.925 651.033 631.835 681.53C629.989 688.489 625.379 699.661 618.661 714.007C611.95 728.339 603.155 745.799 592.96 765.323C572.571 804.371 546.591 851.66 520.504 898.677C494.418 945.69 468.224 992.432 447.41 1030.37C426.63 1068.25 411.187 1097.41 406.583 1109.3C310.235 1286 193.226 1339.9 97.1658 1249.64L97.1646 1249.64C89.8694 1242.83 81.7188 1235.64 73.4663 1227.85ZM577.326 554.911C577.329 554.329 577.355 553.557 577.412 552.581C577.496 551.113 577.646 549.226 577.867 546.897L579.242 546.138C578.56 549.863 577.981 552.583 577.539 554.189C577.463 554.467 577.392 554.707 577.326 554.911Z" stroke="#00C9B7" stroke-width="1.18963"/>
</g>
<g filter="url(#filter6_f_1_222)">
<path d="M654.728 543.556C646.395 669.749 688.649 586.644 656.297 708.601C641.389 764.802 445.483 1066.42 427.208 1113.71C330.828 1290.48 217.474 1367.38 121.177 1276.89C101.602 1258.61 83.8802 1234.24 66.7377 1206.48C153.507 1347.28 294.391 1205.5 378.648 1026.15C497.978 772.461 593.633 421.302 526.286 57.3222C621.81 213.102 594.006 652.189 601.603 572.865L654.728 543.556Z" fill="#1C273A"/>
<path d="M121.262 1276.25C106.457 1262.42 92.7107 1245.09 79.464 1225.43C121.106 1277.29 172.682 1273.48 223.86 1237.08C280.509 1196.78 336.827 1116.44 378.975 1026.72C438.654 899.848 492.422 748.583 522.849 583.503C553.156 419.073 560.312 240.885 527.05 59.4198C550.288 98.1244 566.13 153.871 576.913 214.788C587.843 276.533 593.556 343.476 596.524 403.112C599.492 462.742 599.714 515.033 599.668 547.469C599.645 563.662 599.554 574.959 599.708 579.708C599.728 580.306 599.752 580.813 599.781 581.222C599.808 581.606 599.846 581.977 599.908 582.262C599.933 582.378 599.999 582.663 600.151 582.881C600.241 583.01 600.346 583.093 600.449 583.105C600.544 583.116 600.613 583.066 600.657 583.02C600.738 582.934 600.79 582.797 600.823 582.696C600.86 582.582 600.895 582.444 600.928 582.292C601.173 581.149 601.506 578.248 601.963 573.499L654.247 544.655C652.284 575.392 653.354 593.625 655.639 605.491C657.972 617.604 661.567 623.031 664.285 628.113C665.638 630.644 666.755 633.05 667.463 636.167C668.171 639.288 668.491 643.225 668.136 648.819C667.425 660.038 664.023 677.635 655.933 708.131C654.089 715.084 649.423 725.897 642.6 739.621C635.786 753.329 626.843 769.898 616.47 788.354C595.726 825.267 569.272 869.712 542.71 913.883C516.149 958.051 489.479 1001.95 468.309 1037.75C457.724 1055.66 448.512 1071.54 441.374 1084.43C434.255 1097.29 429.185 1107.19 426.879 1113.14C378.713 1201.48 326.318 1264.83 273.954 1294.81C221.583 1324.79 169.277 1321.36 121.263 1276.25L121.262 1276.25Z" stroke="#00C9B7" stroke-width="1.18963"/>
</g>
<g filter="url(#filter7_f_1_222)">
<path d="M642.306 540.941C633.972 667.134 676.226 584.029 643.875 705.987C628.966 762.188 433.06 1063.8 414.785 1111.1C318.405 1287.87 205.051 1364.76 108.754 1274.28C89.179 1255.99 71.4573 1231.62 54.3148 1203.87C141.084 1344.66 290.521 1213.92 374.778 1034.56C494.107 780.875 589.762 429.716 522.416 65.7362C617.94 221.517 581.584 649.574 589.18 570.251L642.306 540.941Z" fill="#1C273A"/>
<path d="M108.839 1273.63C94.0383 1259.81 80.2953 1242.48 67.052 1222.83C109.049 1275.2 162.574 1273.91 215.704 1239.98C274.493 1202.44 332.952 1124.86 375.105 1035.13C434.784 908.262 488.552 756.998 518.979 591.917C549.286 427.487 556.442 249.299 523.179 67.8332C546.4 106.515 561.711 161.573 571.703 221.464C581.832 282.171 586.477 347.734 588.376 405.989C590.275 464.238 589.429 515.149 588.581 546.546C588.158 562.22 587.734 573.082 587.653 577.501C587.643 578.057 587.638 578.52 587.639 578.882C587.641 579.226 587.647 579.534 587.669 579.751C587.675 579.808 587.685 579.891 587.703 579.982C587.714 580.038 587.76 580.266 587.884 580.463C587.945 580.548 588.078 580.667 588.148 580.697C588.208 580.706 588.303 580.68 588.341 580.653C588.412 580.593 588.45 580.497 588.465 580.458C588.524 580.299 588.57 580.02 588.611 579.744C588.786 578.554 589.083 575.644 589.54 570.885L641.824 542.04C639.861 572.778 640.931 591.011 643.216 602.877C645.549 614.99 649.144 620.417 651.862 625.499C653.215 628.03 654.332 630.436 655.04 633.552C655.748 636.674 656.068 640.611 655.713 646.205C655.002 657.424 651.6 675.021 643.51 705.517C641.666 712.469 637 723.282 630.178 737.006C623.363 750.715 614.42 767.283 604.048 785.74C583.303 822.653 556.849 867.098 530.287 911.268C503.726 955.436 477.056 999.332 455.886 1035.14C445.301 1053.04 436.089 1068.93 428.951 1081.82C421.832 1094.67 416.762 1104.57 414.456 1110.53C366.29 1198.86 313.895 1262.22 261.531 1292.19C209.16 1322.17 156.854 1318.75 108.841 1273.63L108.839 1273.63Z" stroke="#00C9B7" stroke-width="1.18963"/>
</g>
<g filter="url(#filter8_f_1_222)">
<path d="M636.739 524.831C628.406 651.024 670.66 567.919 638.308 689.876C623.4 746.077 427.494 1047.69 409.219 1094.99C312.839 1271.76 199.485 1348.65 103.188 1258.17C83.613 1239.88 65.8913 1215.51 48.7489 1187.75C135.518 1328.55 307.83 1222.84 392.087 1043.48C511.417 789.795 607.072 438.635 539.725 74.6559C635.25 230.436 576.018 633.464 583.614 554.14L636.739 524.831Z" fill="#1C273A"/>
<path d="M103.273 1257.52C88.4391 1243.66 74.6676 1226.29 61.3967 1206.59C80.6472 1230.64 103.079 1244.8 127.217 1250.57C156.949 1257.67 189.3 1252.04 221.555 1236.4C285.559 1205.37 349.249 1134.92 391.423 1046.15L392.415 1044.05C452.093 917.182 505.861 765.917 536.288 600.837C566.595 436.407 573.751 258.219 540.489 76.7538C563.664 115.382 577.555 168.869 585.432 226.429C593.417 284.778 595.206 347.205 594.248 402.328C593.289 457.444 589.585 505.221 586.595 534.26C585.821 541.781 585.095 548.036 584.478 552.833L583.41 553.422L583.253 553.508L583.224 553.816C582.75 558.762 582.53 561.888 582.523 563.32C582.522 563.651 582.529 564.006 582.579 564.285C582.594 564.371 582.678 564.832 582.938 565.04C583.065 565.142 583.167 565.122 583.229 565.088C583.288 565.054 583.331 564.998 583.358 564.956C583.452 564.807 583.53 564.538 583.597 564.271C583.671 563.977 583.753 563.588 583.842 563.114C584.172 561.369 584.632 558.319 585.178 554.11L636.258 525.929C634.295 556.667 635.365 574.9 637.65 586.766C639.983 598.879 643.578 604.306 646.296 609.388C647.65 611.919 648.766 614.326 649.473 617.443C650.182 620.564 650.501 624.501 650.147 630.095C649.436 641.314 646.034 658.91 637.944 689.406C636.1 696.359 631.434 707.171 624.612 720.896C617.797 734.604 608.854 751.173 598.482 769.629C577.737 806.542 551.283 850.987 524.721 895.158C498.16 939.326 471.49 983.221 450.32 1019.03C439.735 1036.93 430.523 1052.82 423.385 1065.71C416.266 1078.56 411.196 1088.46 408.89 1094.42C360.724 1182.75 308.329 1246.11 255.965 1276.08C203.594 1306.06 151.288 1302.63 103.275 1257.52L103.273 1257.52ZM583.563 559.436C583.666 558.143 583.802 556.593 583.975 554.773L584.244 554.625C583.994 556.502 583.766 558.11 583.563 559.436Z" stroke="#00C9B7" stroke-width="1.18963"/>
</g>
<g filter="url(#filter9_f_1_222)">
<path d="M636.74 524.829C628.406 651.022 670.66 567.917 638.309 689.875C623.4 746.076 439.669 1018.32 421.394 1065.62C325.014 1242.39 180.704 1344.71 84.407 1254.23C64.8319 1235.94 65.8914 1215.51 48.7489 1187.75C135.518 1328.55 279.456 1320.24 363.714 1140.88C483.043 887.199 624.465 720.147 557.119 356.167C652.643 511.948 576.018 633.462 583.614 554.138L636.74 524.829Z" fill="#1C273A"/>
<path d="M345.046 1177.4C351.656 1166.29 358.002 1154.31 364.041 1141.46C393.869 1078.05 425.073 1020.06 454.066 963.021C483.055 905.995 509.828 849.93 530.768 790.407C572.491 671.808 591.067 539.429 557.881 358.254C581.087 396.51 593.877 432.603 600.123 464.043C606.421 495.75 606.075 522.786 603.007 542.608L583.41 553.42L583.253 553.506L583.224 553.814C582.746 558.804 582.597 563.032 582.72 566.533C582.843 570.024 583.238 572.85 583.88 575.001C584.531 577.187 585.434 578.663 586.507 579.37C587.557 580.061 588.717 579.982 589.91 579.293C592.297 577.914 594.963 574.005 597.418 567.982C599.863 561.985 602.117 553.848 603.692 543.894L636.258 525.928C634.295 556.666 635.365 574.898 637.65 586.764C639.983 598.877 643.578 604.305 646.296 609.386C647.65 611.917 648.766 614.324 649.474 617.441C650.182 620.562 650.502 624.499 650.147 630.092C649.436 641.311 646.034 658.908 637.944 689.404C636.1 696.357 631.624 706.711 625.136 719.63C618.655 732.534 610.188 747.956 600.386 765.035C580.783 799.194 555.851 839.966 530.81 880.465C505.772 920.962 480.624 961.188 460.595 994.242C450.581 1010.77 441.843 1025.51 435.038 1037.59C428.251 1049.65 423.37 1059.09 421.065 1065.05C398.027 1107.29 372.249 1145.28 345.046 1177.4ZM586.56 577.978C585.762 577.451 585.075 576.369 584.545 574.591C584.005 572.777 583.627 570.231 583.508 566.864C583.393 563.577 583.527 559.561 583.976 554.772L602.714 544.434C601.171 553.677 599.037 561.251 596.741 566.884C594.317 572.831 591.73 576.568 589.494 577.86C588.376 578.506 587.382 578.519 586.56 577.978ZM198.505 1284.36C216.478 1279.89 234.783 1271.91 253.081 1260.85C281.06 1243.94 309.039 1219.81 335.815 1189.95C297.977 1247.39 252.601 1278.16 207.038 1283.63C204.194 1283.98 201.349 1284.22 198.505 1284.36ZM84.4922 1253.58C74.8059 1244.53 70.2447 1234.99 65.9577 1224.22C62.8871 1216.5 59.936 1208.1 55.3621 1198.84C91.8746 1253.07 137.323 1282.5 183.846 1285.72C148.029 1290.88 113.987 1281.29 84.4936 1253.58L84.4922 1253.58Z" stroke="#00C9B7" stroke-width="1.18963"/>
</g>
<g filter="url(#filter10_f_1_222)">
<path d="M636.74 524.829C628.406 651.022 670.66 567.917 638.309 689.875C623.4 746.076 411.932 1051.79 393.657 1099.09C297.278 1275.86 180.704 1344.71 84.407 1254.23C64.8319 1235.94 65.8914 1215.51 48.7489 1187.75C135.518 1328.55 274.676 1267.18 358.934 1087.82C478.263 834.133 624.465 720.147 557.119 356.167C652.643 511.948 576.018 633.462 583.614 554.138L636.74 524.829Z" fill="#1C273A"/>
<path d="M84.4922 1253.58C74.8059 1244.53 70.2447 1234.99 65.9577 1224.22C62.8515 1216.42 59.8681 1207.9 55.2028 1198.51C97.7806 1260.81 151.554 1277.75 204.959 1258.57C261.196 1238.39 317.1 1178.14 359.261 1088.39C389.084 1024.99 420.586 970.316 450.024 918.264C479.457 866.219 506.83 816.788 528.368 763.901C571.289 658.508 591.06 539.335 557.881 358.254C581.087 396.51 593.877 432.603 600.123 464.043C606.421 495.75 606.075 522.786 603.007 542.608L583.41 553.42L583.253 553.506L583.224 553.814C582.746 558.804 582.597 563.032 582.72 566.533C582.843 570.024 583.238 572.85 583.88 575.001C584.531 577.187 585.434 578.663 586.507 579.37C587.557 580.061 588.717 579.982 589.91 579.293C592.297 577.914 594.963 574.005 597.418 567.982C599.863 561.985 602.117 553.848 603.692 543.894L636.258 525.928C634.295 556.666 635.365 574.898 637.65 586.764C639.983 598.877 643.578 604.305 646.296 609.386C647.65 611.917 648.766 614.324 649.474 617.441C650.182 620.562 650.502 624.499 650.147 630.092C649.436 641.311 646.034 658.908 637.944 689.404C636.102 696.35 631.196 707.223 623.947 721.061C616.708 734.881 607.158 751.611 596.056 770.26C573.852 807.557 545.453 852.514 516.945 897.198C488.439 941.879 459.824 986.287 437.195 1022.48C425.88 1040.58 416.06 1056.62 408.497 1069.62C400.953 1082.59 395.637 1092.56 393.328 1098.52C345.164 1186.85 291.968 1248.19 238.801 1276.16C185.626 1304.13 132.512 1298.7 84.4936 1253.58L84.4922 1253.58ZM586.56 577.978C585.762 577.451 585.075 576.369 584.545 574.591C584.005 572.777 583.627 570.231 583.508 566.864C583.393 563.577 583.527 559.561 583.976 554.772L602.714 544.434C601.171 553.677 599.037 561.251 596.741 566.884C594.317 572.831 591.73 576.568 589.494 577.86C588.376 578.506 587.382 578.519 586.56 577.978Z" stroke="#00C9B7" stroke-width="1.18963"/>
</g>
</g>
</g>
</g>
<defs>
<filter id="filter0_f_1_222" x="28.4661" y="0.957145" width="646.16" height="392.043" filterUnits="userSpaceOnUse" color-interpolation-filters="sRGB">
<feFlood flood-opacity="0" result="BackgroundImageFix"/>
<feBlend mode="normal" in="SourceGraphic" in2="BackgroundImageFix" result="shape"/>
<feGaussianBlur stdDeviation="2.97408" result="effect1_foregroundBlur_1_222"/>
</filter>
<filter id="filter1_f_1_222" x="36.691" y="57.1154" width="613.838" height="1242.29" filterUnits="userSpaceOnUse" color-interpolation-filters="sRGB">
<feFlood flood-opacity="0" result="BackgroundImageFix"/>
<feBlend mode="normal" in="SourceGraphic" in2="BackgroundImageFix" result="shape"/>
<feGaussianBlur stdDeviation="2.97408" result="effect1_foregroundBlur_1_222"/>
</filter>
<filter id="filter2_f_1_222" x="-20.4245" y="0" width="728.069" height="1356.52" filterUnits="userSpaceOnUse" color-interpolation-filters="sRGB">
<feFlood flood-opacity="0" result="BackgroundImageFix"/>
<feBlend mode="normal" in="SourceGraphic" in2="BackgroundImageFix" result="shape"/>
<feGaussianBlur stdDeviation="31.5253" result="effect1_foregroundBlur_1_222"/>
</filter>
<filter id="filter3_f_1_222" x="8.13325" y="28.5577" width="670.954" height="1299.4" filterUnits="userSpaceOnUse" color-interpolation-filters="sRGB">
<feFlood flood-opacity="0" result="BackgroundImageFix"/>
<feBlend mode="normal" in="SourceGraphic" in2="BackgroundImageFix" result="shape"/>
<feGaussianBlur stdDeviation="17.2497" result="effect1_foregroundBlur_1_222"/>
</filter>
<filter id="filter4_f_1_222" x="8.13325" y="28.5577" width="670.954" height="1299.4" filterUnits="userSpaceOnUse" color-interpolation-filters="sRGB">
<feFlood flood-opacity="0" result="BackgroundImageFix"/>
<feBlend mode="normal" in="SourceGraphic" in2="BackgroundImageFix" result="shape"/>
<feGaussianBlur stdDeviation="17.2497" result="effect1_foregroundBlur_1_222"/>
</filter>
<filter id="filter5_f_1_222" x="-0.0916538" y="28.5581" width="679.178" height="1299.4" filterUnits="userSpaceOnUse" color-interpolation-filters="sRGB">
<feFlood flood-opacity="0" result="BackgroundImageFix"/>
<feBlend mode="normal" in="SourceGraphic" in2="BackgroundImageFix" result="shape"/>
<feGaussianBlur stdDeviation="17.2497" result="effect1_foregroundBlur_1_222"/>
</filter>
<filter id="filter6_f_1_222" x="51.2689" y="41.8534" width="632.877" height="1288.65" filterUnits="userSpaceOnUse" color-interpolation-filters="sRGB">
<feFlood flood-opacity="0" result="BackgroundImageFix"/>
<feBlend mode="normal" in="SourceGraphic" in2="BackgroundImageFix" result="shape"/>
<feGaussianBlur stdDeviation="7.73261" result="effect1_foregroundBlur_1_222"/>
</filter>
<filter id="filter7_f_1_222" x="36.4662" y="47.8877" width="637.636" height="1282.38" filterUnits="userSpaceOnUse" color-interpolation-filters="sRGB">
<feFlood flood-opacity="0" result="BackgroundImageFix"/>
<feBlend mode="normal" in="SourceGraphic" in2="BackgroundImageFix" result="shape"/>
<feGaussianBlur stdDeviation="8.92225" result="effect1_foregroundBlur_1_222"/>
</filter>
<filter id="filter8_f_1_222" x="39.2296" y="65.1366" width="620.977" height="1240.69" filterUnits="userSpaceOnUse" color-interpolation-filters="sRGB">
<feFlood flood-opacity="0" result="BackgroundImageFix"/>
<feBlend mode="normal" in="SourceGraphic" in2="BackgroundImageFix" result="shape"/>
<feGaussianBlur stdDeviation="4.75853" result="effect1_foregroundBlur_1_222"/>
</filter>
<filter id="filter9_f_1_222" x="20.1912" y="327.61" width="659.054" height="988.744" filterUnits="userSpaceOnUse" color-interpolation-filters="sRGB">
<feFlood flood-opacity="0" result="BackgroundImageFix"/>
<feBlend mode="normal" in="SourceGraphic" in2="BackgroundImageFix" result="shape"/>
<feGaussianBlur stdDeviation="14.2756" result="effect1_foregroundBlur_1_222"/>
</filter>
<filter id="filter10_f_1_222" x="20.1912" y="327.61" width="659.054" height="994.978" filterUnits="userSpaceOnUse" color-interpolation-filters="sRGB">
<feFlood flood-opacity="0" result="BackgroundImageFix"/>
<feBlend mode="normal" in="SourceGraphic" in2="BackgroundImageFix" result="shape"/>
<feGaussianBlur stdDeviation="14.2756" result="effect1_foregroundBlur_1_222"/>
</filter>
<linearGradient id="paint0_linear_1_222" x1="496.992" y1="-38.4025" x2="38.774" y2="60.723" gradientUnits="userSpaceOnUse">
<stop stop-color="#C4C4C4" stop-opacity="0"/>
<stop offset="0.565737" stop-color="#C4C4C4"/>
<stop offset="1" stop-color="#C4C4C4" stop-opacity="0"/>
</linearGradient>
</defs>
</svg>