<svg width="839" height="1624" viewBox="0 0 839 1624" fill="none" xmlns="http://www.w3.org/2000/svg">
<g opacity="0.3">
<path d="M258.336 2.36803C237.884 7.28994 218.61 19.5947 204.192 42.8619C190.803 64.3393 182.711 92.0809 177.414 120.494C169.91 161.659 167.85 204.613 168.439 247.121C169.322 298.13 173 349.586 168.145 400.371C159.023 496.348 127.39 586.285 96.7865 669.957C89.7242 689.421 81.3378 708.214 69.8617 722.532C56.3257 739.535 39.9942 745.575 22.9271 748.707C15.4235 750.05 5.12434 751.616 1.29895 763.249C-2.8207 775.778 3.80016 793.899 8.06694 804.862C19.6902 834.841 40.1413 852.067 60.1511 866.609C82.9563 882.941 105.614 899.049 126.507 920.527C172.264 967.732 209.635 1034.4 224.643 1116.28C233.323 1163.71 236.413 1217.41 228.91 1265.73C222.289 1308.46 205.81 1345.6 197.424 1387.44C187.419 1437.1 215.815 1466.63 242.593 1483.19C275.991 1503.55 312.038 1511.15 346.908 1522.34C412.234 1543.37 477.707 1566.64 541.414 1597.29C570.252 1611.16 599.972 1625.25 630.575 1623.91C656.47 1622.79 680.599 1608.92 701.345 1585.65C739.893 1542.92 770.055 1472.9 776.087 1400.19C780.354 1349.85 774.616 1299.29 775.351 1248.73C775.94 1198.84 786.092 1154.32 800.364 1110.02C813.164 1069.75 827.73 1029.93 834.645 986.077C841.266 943.57 839.795 899.497 832.879 857.437C825.229 810.679 811.251 767.724 799.628 723.203C787.563 676.892 782.561 627.226 781.678 577.559C780.795 529.235 783.444 481.135 785.798 433.035C786.975 409.096 788.152 385.158 788.74 361.219C789.329 337.057 788.593 312.895 788.74 288.733C788.887 271.507 793.007 256.07 798.009 240.857C800.952 231.908 804.777 221.84 804.483 211.549C804.189 200.81 798.892 192.532 793.596 186.492C783.591 174.858 771.379 167.699 759.02 164.12C702.228 147.564 647.642 203.271 591.144 184.478C568.339 176.872 546.564 162.33 525.671 146.893C503.602 130.785 482.121 112.663 460.934 94.0944C442.984 78.6575 425.328 62.3258 406.643 49.1261C383.102 32.3469 358.237 18.9235 332.931 10.1983C308.801 1.24942 283.348 -3.00132 258.336 2.36803C257.306 2.59176 257.747 5.05271 258.777 4.82898C311.597 -6.58088 368.242 21.6082 415.029 57.4039C454.019 87.159 490.507 123.626 529.938 152.039C549.212 165.909 569.369 179.109 590.261 186.044C614.097 194.099 638.373 188.282 661.914 180.675C690.899 171.279 720.178 158.974 750.045 163.896C767.701 166.804 810.516 183.807 801.982 222.511C799.334 234.369 794.626 244.884 791.683 256.741C787.563 272.849 787.563 288.286 787.857 305.289C788.593 352.494 786.092 399.7 783.885 446.682C779.324 537.96 775.793 632.148 797.568 719.4C808.309 762.578 821.992 803.743 830.084 848.264C838.47 894.351 840.677 942.228 832.732 988.986C825.523 1032.39 810.81 1071.54 798.157 1111.59C785.945 1150.51 776.234 1190.11 774.469 1233.52C772.556 1282.06 777.853 1330.39 776.087 1378.71C774.616 1419.65 766.524 1457.91 752.988 1493.26C725.327 1565.74 678.098 1624.14 620.717 1620.56C590.262 1618.54 561.13 1603.11 532.292 1589.46C501.689 1574.92 470.35 1562.84 439.159 1551.2C391.341 1533.3 343.083 1518.99 294.971 1503.1C277.757 1497.28 260.395 1490.57 243.917 1480.5C228.91 1471.33 212.284 1458.8 203.015 1437.77C190.95 1410.48 200.219 1379.83 208.017 1352.98C218.905 1314.95 231.116 1278.93 233.765 1237.09C239.061 1154.32 223.171 1070.64 189.626 1005.09C159.023 945.136 117.09 902.853 72.0686 871.531C51.7646 857.66 29.6951 843.118 15.2763 815.601C7.18416 800.164 -6.79322 764.368 11.5981 754.748C23.6628 748.484 36.9045 749.826 49.1163 743.338C73.9813 730.138 88.8415 697.922 101.053 664.14C115.472 623.87 129.597 583.376 141.661 541.093C153.432 499.48 163.584 456.302 168.88 411.557C174.471 364.128 172.117 316.027 170.793 268.151C169.616 223.406 170.205 178.885 176.825 135.036C181.534 103.491 189.331 71.7221 203.75 47.1126C218.169 22.7268 237.737 9.75089 258.777 4.60526C259.807 4.60526 259.365 2.14431 258.336 2.36803Z" fill="url(#paint0_linear_1_1216)"/>
<path d="M184.918 197.007C180.651 245.331 183.888 293.879 183.741 342.427C183.593 392.093 177.12 439.075 165.938 485.609C155.197 530.578 141.073 573.532 126.801 616.04C120.327 635.28 114.001 654.967 107.086 673.984C100.465 692.106 92.5197 709.78 80.8965 720.966C68.3904 732.823 53.5302 733.718 39.5528 738.864C30.5779 741.996 23.6628 748.484 21.3087 762.802C18.5132 779.581 24.9869 789.872 30.725 803.296C37.3459 819.18 45.4381 833.946 54.413 846.922C72.0686 872.426 93.2554 890.1 113.854 909.34C136.217 930.37 157.404 954.756 176.09 983.169C216.845 1044.69 243.328 1124.11 244.947 1212.26C245.388 1235.75 243.77 1259.02 239.209 1281.62C235.089 1301.97 229.351 1321.44 224.348 1341.13C218.316 1364.84 210.518 1391.91 218.905 1416.3C225.526 1435.54 238.914 1447.84 251.273 1457.01C267.016 1468.42 283.789 1475.81 300.562 1482.07C314.834 1487.44 329.105 1491.47 343.377 1496.17C373.98 1506.46 404.436 1517.87 434.745 1530.17C464.612 1542.25 494.774 1553.89 523.906 1569.55C550.389 1583.64 576.726 1600.87 604.68 1606.46C630.428 1611.61 655.146 1604 677.51 1583.64C697.667 1565.3 714.881 1539.57 728.711 1510.71C742.689 1481.4 753.576 1448.07 758.873 1412.72C765.052 1370.43 764.464 1325.69 765.788 1282.73C767.259 1235.98 770.349 1189.89 781.825 1146.04C792.271 1105.99 806.984 1068.85 817.578 1028.58C828.318 987.867 832.732 945.136 829.201 901.286C825.817 858.779 815.959 818.061 805.072 778.686C799.187 756.985 792.566 735.955 787.857 713.583C783.002 690.763 779.912 667.496 778 643.781C774.321 597.918 775.351 551.384 777.411 505.521C779.471 458.986 782.708 412.452 783.296 365.694C783.591 344.664 781.531 322.292 785.062 301.709C787.416 288.286 791.83 276.428 795.067 263.453C801.688 237.053 789.917 219.827 775.057 207.746C753.576 190.295 728.123 188.953 704.582 193.875C674.126 200.139 644.553 216.694 613.508 217.366C593.645 217.813 574.519 207.746 556.274 196.112C514.931 169.713 476.677 133.246 437.982 99.24C397.668 64.3392 352.499 42.4144 306.153 37.9399C283.936 35.7027 259.954 37.2688 239.503 51.587C222.877 63.2206 210.077 83.3557 201.69 107.965C192.274 135.259 187.86 166.133 185.065 196.559C184.918 198.125 186.536 198.797 186.683 197.231C192.568 135.036 206.987 68.8137 250.391 48.0075C274.226 36.5976 300.709 38.3874 324.986 43.3093C350.292 48.6786 375.451 58.7461 399.286 73.0644C436.952 95.8841 470.792 133.022 506.25 162.106C540.237 190.071 578.785 222.959 618.658 219.603C671.477 215.352 732.536 164.343 781.678 217.142C790.506 226.538 797.568 238.619 794.626 255.846C792.566 267.48 788.299 277.995 785.503 289.181C781.531 305.065 781.089 319.831 781.384 336.61C781.678 359.206 781.237 382.026 780.354 404.622C777.117 492.097 767.995 580.915 778.441 668.167C788.887 755.419 825.523 829.919 828.465 920.303C829.937 966.837 821.697 1010.24 809.044 1051.85C797.862 1088.77 784.326 1124.11 775.94 1162.82C766.965 1203.98 765.199 1247.83 763.875 1290.79C762.698 1333.3 763.287 1377.82 756.077 1419.43C743.866 1489.9 709.584 1558.81 665.886 1590.13C610.418 1629.73 553.332 1578.72 500.218 1555C446.221 1530.84 391.488 1508.47 336.315 1491.02C304.682 1480.95 270.842 1472.23 242.593 1446.72C229.939 1435.31 217.433 1418.09 216.845 1394.15C216.403 1377.59 221.259 1360.14 225.231 1344.93C230.087 1325.69 235.677 1306.9 239.944 1287.21C256.276 1211.37 243.181 1122.55 216.551 1055.66C191.391 992.789 154.02 942.899 112.971 904.866C91.7841 885.178 70.3031 866.833 52.6474 839.986C43.084 825.444 35.7275 809.113 28.5181 791.886C24.5456 782.266 21.1616 775.107 23.2214 763.026C25.5755 749.602 31.9021 743.786 40.2885 740.877C52.206 736.626 64.8592 735.508 76.1883 727.454C86.046 720.518 93.8439 709.108 100.171 695.909C107.674 680.472 112.971 662.798 118.709 645.795C125.477 625.66 132.245 605.749 138.866 585.39C151.519 546.686 163.289 507.31 172.117 466.369C181.534 422.743 185.8 379.117 185.653 333.03C185.359 287.391 182.858 241.528 186.83 196.112C186.83 195.217 185.065 195.217 184.918 197.007Z" fill="url(#paint1_linear_1_1216)"/>
<path d="M199.336 219.155C195.07 264.795 197.718 310.882 196.688 356.969C195.511 405.069 187.272 450.037 175.501 494.334C164.172 536.842 150.342 577.336 137.247 618.501C127.242 649.598 119.15 692.329 98.6992 711.793C87.223 722.532 73.8341 722.979 60.8867 726.559C52.7945 728.796 42.7897 731.704 39.6999 744.904C36.9044 756.761 38.2286 776.225 41.0241 787.859C42.3483 793.228 44.8495 797.032 47.4978 800.611C53.2359 808.218 56.0314 818.733 60.151 828.353C72.6571 857.213 89.8713 880.033 108.116 900.392C128.419 923.211 149.018 944.689 167.85 970.417C187.272 997.04 205.221 1026.57 219.787 1059.68C227.144 1076.24 233.765 1093.69 239.356 1111.81C245.682 1132.62 249.655 1154.54 252.745 1176.91C255.834 1199.51 257.747 1223 256.57 1246.04C255.393 1268.86 250.685 1290.56 245.829 1312.27C240.238 1337.1 229.498 1369.09 237.149 1395.49C242.593 1414.51 255.099 1426.81 266.722 1435.76C282.024 1447.39 298.649 1454.78 315.128 1461.26C329.399 1466.86 343.965 1471.11 358.384 1476.25C387.81 1487.22 417.089 1499.3 446.221 1512.27C473.587 1524.58 501.395 1536.44 527.731 1552.77C551.86 1567.98 575.99 1586.1 602.179 1591.25C649.996 1600.64 691.487 1550.53 717.088 1493.93C730.035 1465.29 740.187 1432.63 744.307 1398.4C749.309 1357.23 751.516 1314.95 755.489 1273.56C759.461 1231.5 763.14 1188.1 773.144 1148.05C782.855 1108.9 797.274 1072.66 807.72 1033.95C818.313 995.026 823.316 954.085 820.52 912.025C817.725 870.86 808.603 831.709 798.304 793.899C792.566 772.869 786.092 752.511 781.384 730.81C776.381 708.214 772.997 684.946 771.085 661.456C767.406 617.158 768.436 572.414 770.643 527.893C772.703 483.596 775.94 439.522 776.676 395.002C776.97 374.419 775.351 353.389 779.03 333.254C781.384 320.502 785.503 308.868 788.005 296.116C793.448 269.046 780.06 250.924 765.494 238.843C744.895 222.064 720.472 220.274 697.667 225.196C667.358 231.684 637.932 248.463 606.887 247.792C588.496 247.344 570.399 236.382 553.773 224.972C515.372 198.797 479.767 163.896 443.573 131.232C427.83 116.914 412.087 104.162 394.431 95.4367C371.479 84.2505 347.349 77.7626 323.22 75.3016C283.495 71.2746 238.767 76.6439 216.698 134.364C206.693 160.093 202.426 189.848 199.336 219.155C199.189 220.721 200.808 221.393 200.955 219.827C204.044 189.177 208.753 157.632 219.787 131.232C230.675 105.057 247.595 88.5013 267.458 82.0133C291.293 74.4067 316.746 75.9728 340.728 80.4472C364.564 84.9217 388.546 93.1994 410.763 107.518C426.505 117.585 440.924 132.127 455.49 145.551C473.293 161.882 491.096 178.438 509.34 193.875C526.701 208.64 544.357 222.735 562.895 234.145C578.197 243.541 593.94 251.148 610.713 250.477C662.797 248.911 721.207 197.007 770.055 246.673C778.883 255.622 788.593 268.374 787.416 286.049C786.533 298.801 781.972 310.658 779.177 322.292C775.646 336.834 774.616 350.928 774.763 366.365C774.91 388.29 774.469 409.991 773.439 431.916C770.055 515.588 761.227 600.379 771.379 683.828C776.676 727.006 788.74 765.263 799.481 805.757C809.927 845.356 818.608 886.521 819.49 929.475C820.373 974.22 811.84 1015.61 799.481 1055.66C788.593 1090.78 775.94 1124.79 767.995 1161.7C759.756 1200.63 756.519 1242.46 752.84 1282.73C749.162 1322.33 747.397 1363.05 741.953 1402.2C732.242 1471.78 699.874 1539.34 658.53 1572.68C633.665 1592.81 607.623 1593.71 580.845 1581.63C556.274 1570.67 533.469 1551.87 509.34 1539.57C457.697 1512.94 404.583 1489.45 351.469 1471.11C320.572 1460.59 287.32 1452.09 259.807 1427.04C247.595 1415.85 235.825 1398.85 236.119 1375.58C236.413 1357.01 241.71 1337.77 245.682 1320.32C249.949 1301.3 254.51 1282.29 256.864 1262.38C261.572 1221.66 255.981 1180.05 248.478 1140.89C241.71 1105.1 228.321 1071.76 213.755 1042.23C185.359 984.288 148.576 942.228 110.617 899.944C90.7541 877.795 71.9214 853.186 59.1211 820.746C56.1785 813.587 54.4129 805.98 50.2933 800.387C44.9966 793.452 42.3483 786.964 41.3184 776.449C40.4356 767.948 39.5528 758.999 40.5827 750.273C42.2011 736.403 49.999 732.599 57.9441 729.691C69.5674 725.664 81.7792 725.888 92.814 718.952C101.2 713.583 107.968 704.634 113.412 693.672C119.739 680.919 124.153 666.154 128.419 651.835C134.158 633.043 140.19 614.25 146.369 595.681C170.94 520.063 196.394 442.655 198.306 356.745C199.336 311.105 196.541 265.242 200.955 219.603C201.249 218.26 199.483 217.589 199.336 219.155Z" fill="url(#paint2_linear_1_1216)"/>
<path d="M213.755 241.752C209.341 285.154 211.548 329.003 209.341 372.629C206.987 418.94 196.541 462.119 184.329 504.178C172.853 543.554 159.758 581.81 148.135 620.962C139.454 650.493 133.569 689.197 113.118 705.082C101.936 713.807 89.1357 712.912 77.071 715.596C69.7145 717.163 58.6797 719.847 54.56 730.81C50.5875 741.101 53.383 755.867 55.4428 766.382C57.7969 779.134 59.1211 795.466 65.5948 805.309C68.6845 809.784 72.5099 812.692 75.7468 816.943C81.0435 824.102 84.4275 836.407 88.5471 845.132C95.9037 860.569 103.849 874.887 112.529 888.534C129.449 915.381 148.429 938.648 166.379 963.929C184.917 990.104 202.573 1018.07 218.022 1048.72C234.206 1080.49 250.538 1116.96 258.041 1155.66C262.308 1177.36 266.722 1198.84 268.34 1221.43C270.106 1244.25 268.046 1266.4 264.368 1288.55C261.131 1308.46 256.864 1327.93 254.657 1348.28C253.627 1358.35 253.333 1367.75 255.981 1377.15C260.984 1395.27 272.901 1407.12 283.936 1415.63C299.091 1427.26 315.569 1434.64 331.901 1440.91C346.761 1446.72 361.768 1451.42 376.481 1457.46C404.436 1469.1 432.243 1481.85 459.757 1495.72C485.799 1508.92 511.694 1522.12 536.265 1540.69C556.863 1556.35 578.344 1573.57 601.738 1576.71C645.73 1582.52 684.719 1526.37 706.494 1473.79C718.412 1445.16 726.504 1413.84 729.888 1380.28C733.713 1341.13 739.599 1302.65 745.631 1264.16C751.516 1226.36 755.93 1186.53 764.464 1149.84C773.733 1110.47 788.152 1074.45 798.745 1035.74C808.75 999.277 813.899 961.244 811.693 921.869C809.486 882.27 801.099 844.461 791.241 807.994C780.207 766.829 768.731 727.901 764.464 683.38C760.344 639.083 761.374 594.115 763.728 549.594C765.935 506.416 769.172 463.461 769.907 420.282C770.202 401.042 769.319 382.026 772.997 363.233C775.499 350.481 779.618 338.4 781.089 325.2C784.179 297.682 767.259 277.995 752.693 267.256C732.831 252.49 709.731 251.595 688.103 256.517C659.413 263.453 630.869 279.561 601.443 277.323C584.523 275.981 567.75 264.795 552.596 254.056C516.402 228.104 482.856 194.546 448.869 162.554C435.039 149.578 421.356 136.378 405.907 128.324C384.868 117.362 362.357 112.887 340.287 111.097C303.063 108.189 254.804 107.518 231.852 160.316C221.406 184.702 216.992 213.786 213.755 241.752C213.608 243.318 215.226 243.989 215.373 242.423C218.61 213.339 223.171 183.136 234.648 158.75C247.448 131.904 266.575 120.717 287.467 116.69C310.272 112.216 333.519 112.216 356.324 115.796C378.1 119.151 400.905 125.416 420.62 140.629C434.45 151.144 447.398 164.567 460.493 176.872C477.118 192.756 493.891 208.641 510.811 223.63C527.437 238.396 544.504 252.49 562.307 263.9C575.107 272.178 588.643 279.784 602.62 280.456C654.116 283.14 708.554 229.894 757.696 274.639C767.259 283.364 778.882 297.011 779.765 315.58C780.354 327.885 776.528 339.742 773.88 351.152C765.935 384.71 768.583 420.506 767.112 455.631C763.581 537.066 754.606 619.396 764.611 700.607C769.76 742.22 781.825 779.357 791.977 818.285C801.688 855.871 809.633 895.022 810.368 935.74C811.104 978.918 802.423 1018.96 790.506 1057.67C779.912 1091.67 767.701 1124.56 760.344 1160.58C752.987 1196.82 748.426 1234.86 742.688 1271.55C736.95 1308.69 731.654 1345.82 727.828 1383.41C720.913 1451.2 691.487 1516.97 653.086 1552.99C631.164 1573.57 607.77 1580.06 582.905 1569.1C559.511 1558.81 538.913 1538.9 516.696 1524.35C493.008 1508.92 467.996 1497.28 443.425 1485.43C418.708 1473.35 393.695 1461.71 368.536 1452.09C338.227 1440.46 305.564 1433.08 278.198 1408.24C266.133 1397.28 254.51 1380.95 255.54 1357.68C257.158 1318.08 270.4 1281.84 270.694 1241.57C270.842 1221.88 268.193 1202.42 264.956 1183.4C261.867 1165.73 258.924 1148.05 253.774 1131.5C243.328 1098.16 229.939 1067.07 214.638 1038.2C199.336 1009.12 182.122 982.498 164.025 957.217C147.252 933.726 129.449 911.801 113.559 886.521C104.143 871.531 95.4623 855.647 87.6644 838.868C84.4275 831.932 81.9263 822.76 78.248 816.719C74.864 811.126 69.5673 808.218 66.0362 802.625C62.0637 796.137 61.328 787.412 59.7096 779.358C58.0912 771.527 56.4727 763.697 55.2957 755.419C54.2658 747.813 53.2359 738.192 56.3256 731.257C60.151 722.756 69.1259 720.295 75.3054 718.729C86.4873 715.82 98.2577 716.715 108.998 710.675C116.943 706.2 123.564 698.37 128.714 688.302C134.305 677.34 137.983 664.364 141.514 651.612C146.222 634.161 151.078 617.158 156.374 600.156C178.885 527.446 206.84 454.288 211.107 372.629C213.314 329.227 211.107 285.601 215.521 242.423C215.668 240.857 214.049 240.185 213.755 241.752Z" fill="url(#paint3_linear_1_1216)"/>
<path d="M228.174 264.348C223.171 307.75 225.525 352.047 220.817 395.449C216.109 439.075 203.309 480.464 190.95 520.063C179.768 555.858 167.556 591.207 158.875 628.345C151.96 657.876 145.192 691.658 122.829 700.831C112.088 705.305 100.906 703.963 90.0185 706.2C82.662 707.766 72.51 710.898 67.9489 720.742C64.1236 729.02 65.742 740.43 67.5076 749.379C70.1559 763.697 74.7169 776.896 78.1009 790.544C81.0435 802.401 83.2505 810.679 90.4599 818.062C100.612 828.577 108.704 840.21 116.649 854.528C132.833 883.389 146.222 915.605 162.259 944.689C177.708 972.878 194.775 998.83 210.224 1027.24C227.291 1058.79 243.181 1092.12 256.423 1127.92C259.365 1135.97 262.455 1144.03 264.956 1152.53C268.046 1162.59 269.959 1173.56 272.313 1184.07C276.874 1204.43 281.729 1225.24 281.435 1247.16C281.288 1269.53 277.61 1291.46 275.256 1313.61C273.784 1326.81 271.577 1341.57 273.784 1354.55C277.021 1373.34 288.497 1385.65 299.091 1394.15C313.657 1405.78 329.694 1413.16 345.437 1419.65C360.885 1425.92 376.334 1431.06 391.636 1438C417.972 1450.08 444.161 1463.5 469.909 1478.27C493.155 1491.69 515.519 1505.56 536.853 1524.8C554.509 1540.69 573.341 1558.36 594.234 1561.49C614.685 1564.62 634.106 1550.31 650.143 1532.18C667.505 1512.72 682.071 1487.66 693.253 1459.7C704.582 1431.29 710.908 1401.75 714.734 1369.31C718.706 1334.19 726.357 1300.18 733.566 1266.63C740.923 1232.4 747.249 1197.94 753.576 1163.27C760.638 1124.79 774.027 1090.11 785.062 1054.09C795.655 1019.41 803.306 982.945 803.306 944.241C803.159 904.866 795.95 866.833 786.68 830.366C776.676 791.215 764.317 754.301 759.314 712.688C754.165 670.181 754.753 626.779 756.666 584.047C758.578 541.988 762.11 499.928 763.434 457.644C764.022 437.733 763.139 417.821 766.523 398.358C768.73 385.605 772.409 373.301 773.733 360.101C776.381 332.583 761.227 312 746.661 299.919C727.534 284.259 705.023 282.245 683.983 286.944C655.882 293.208 628.221 309.54 599.384 307.302C583.935 306.184 568.928 295.669 555.244 285.825C520.227 260.321 487.859 226.986 455.196 194.993C443.278 183.36 431.214 170.16 418.119 161.659C399.139 149.13 377.511 146.222 357.06 145.327C334.696 144.432 312.185 147.117 290.116 152.486C273.049 156.737 257.6 166.581 246.859 188.058C235.972 210.43 231.411 237.948 228.174 264.348C228.027 265.914 229.645 266.585 229.792 265.019C233.176 236.606 238.179 206.18 251.126 184.255C265.398 160.093 285.702 155.618 305.859 152.262C345.584 145.327 392.665 141.747 428.418 173.516C457.991 199.692 485.946 229.894 515.372 256.517C531.115 270.835 547.152 284.483 564.072 295.445C575.99 303.275 588.496 310.211 601.59 310.434C651.173 311.553 704.876 260.544 751.222 307.973C760.785 317.817 771.379 332.136 772.114 350.928C772.556 364.128 768.73 377.328 766.229 389.632C759.461 423.191 761.668 459.881 759.903 494.782C755.783 573.309 747.397 653.849 759.903 731.705C766.229 770.856 779.03 806.652 788.005 844.461C796.832 881.599 802.865 920.527 801.099 960.349C797.568 1038.65 761.374 1100.18 749.898 1175.12C739.599 1242.02 719.736 1305.33 712.527 1373.34C705.464 1440.01 678.393 1503.77 640.433 1539.34C620.129 1558.36 598.942 1564.85 576.137 1552.77C555.244 1541.58 537.442 1521 517.726 1505.79C496.834 1489.68 474.029 1478.04 452.106 1465.96C429.154 1453.43 405.907 1441.35 382.366 1431.51C352.352 1418.98 318.806 1412.05 292.323 1385.42C286.437 1379.38 280.699 1372 277.462 1362.16C272.754 1348.06 275.108 1331.51 276.727 1316.52C278.639 1298.17 281.435 1280.27 282.612 1261.7C283.936 1242.46 282.318 1224.57 278.787 1206C275.55 1189.22 272.46 1170.87 267.605 1154.99C262.308 1137.09 255.54 1119.86 248.625 1103.31C235.825 1072.43 221.259 1043.57 205.957 1015.83C191.244 989.433 174.913 964.824 160.641 937.977C145.339 909.117 132.245 878.019 116.208 850.054C109.293 837.973 102.525 827.01 93.5496 818.509C88.1058 813.14 83.6919 807.77 81.4849 798.15C80.1608 792.557 78.8366 786.74 77.3653 781.147C73.687 767.5 68.9789 753.629 67.6547 738.864C65.8891 718.952 77.2182 712.017 88.4001 709.109C107.233 704.41 127.537 709.78 141.955 686.736C153.726 667.944 157.404 640.649 163.584 617.158C183.446 541.54 216.256 469.725 223.466 387.619C226.997 346.901 225.378 305.736 229.939 265.019C230.087 263.453 228.468 262.781 228.174 264.348Z" fill="url(#paint4_linear_1_1216)"/>
<path d="M242.74 286.944C237.443 328.556 238.914 371.511 231.852 412.452C224.79 453.617 211.254 492.097 199.189 530.354C188.89 563.018 179.474 595.905 172.411 630.582C165.938 662.35 156.521 690.092 132.686 694.119C117.385 696.804 91.4898 689.421 80.7493 711.57C72.8043 727.678 83.2505 754.524 88.1058 769.29C92.0783 781.371 96.3451 793.005 99.4349 805.533C102.377 817.167 107.233 824.102 114.148 830.366C135.629 849.83 150.636 879.809 164.025 911.578C176.09 939.991 187.419 968.627 200.66 995.921C215.374 1026.35 230.234 1056.55 244.211 1087.87C251.862 1105.1 259.218 1122.55 266.133 1140.45C269.37 1148.72 272.46 1157 275.403 1165.28C278.64 1174.23 280.258 1184.07 282.906 1193.69C287.614 1211.14 293.353 1228.15 294.088 1247.16C294.824 1268.42 292.617 1289.89 292.176 1311.15C291.881 1323.23 291.293 1335.76 295.118 1346.72C297.914 1354.33 302.18 1360.59 306.741 1365.74C319.542 1380.05 335.432 1387.88 350.439 1394.82C365.741 1401.75 381.484 1406.9 396.785 1414.06C421.797 1425.69 446.515 1440.23 470.497 1455.9C490.949 1469.32 511.4 1482.52 529.644 1502.21C545.681 1519.43 562.307 1539.79 582.022 1545.83C600.855 1551.65 618.805 1538.9 633.959 1523.01C651.026 1505.11 665.445 1481.18 676.627 1454.55C688.103 1427.26 695.165 1398.17 698.844 1366.41C702.522 1334.64 711.055 1304.21 719.148 1274.46C727.387 1244.25 736.509 1214.05 742.541 1182.51C745.631 1166.17 747.985 1149.62 752.105 1133.51C756.813 1114.94 762.698 1097.27 768.583 1079.59C779.324 1046.71 789.77 1013.15 793.007 976.234C796.244 938.648 791.977 901.063 784.326 865.267C775.793 826.116 762.257 789.425 755.342 749.602C748.279 708.885 747.544 666.601 749.162 624.765C750.633 583.824 754.312 542.882 756.224 501.941C757.254 481.582 756.371 460.553 758.873 440.641C760.638 425.875 764.464 411.781 765.935 397.015C768.436 369.721 756.077 348.467 741.659 334.597C723.561 317.146 701.492 313.79 680.747 317.817C653.822 322.963 628.074 337.952 600.708 337.952C585.848 337.952 571.723 328.78 558.628 319.16C525.083 294.55 494.185 261.887 463.141 230.565C450.929 218.261 438.717 205.509 425.917 194.546C410.468 181.346 392.518 178.438 375.157 178.214C353.676 177.991 332.195 182.018 311.008 187.387C293.205 191.638 275.108 195.217 262.308 216.471C250.538 235.711 246.124 262.11 242.74 286.944C242.445 288.51 244.211 289.181 244.358 287.615C248.036 260.544 253.186 230.789 267.458 211.996C282.465 192.309 305.27 190.743 324.103 186.716C345.731 182.018 367.948 178.662 389.723 181.794C406.79 184.031 420.915 192.533 435.333 206.18C464.612 233.921 492.567 264.571 522.14 291.642C546.564 314.014 574.96 341.979 604.533 340.413C651.909 337.952 704.876 291.418 747.397 344.44C756.077 355.403 764.169 369.721 764.317 387.619C764.464 401.713 760.785 415.584 758.579 429.008C755.93 445.116 755.636 460.776 755.194 477.332C754.606 497.243 753.576 516.931 752.252 536.842C747.397 613.803 740.481 693.224 756.96 768.171C765.052 805.086 777.411 839.539 784.62 877.124C792.124 915.829 794.773 956.322 788.593 996.145C782.708 1033.73 770.055 1067.29 759.167 1101.97C754.606 1116.73 750.192 1131.5 746.808 1147.16C743.424 1162.37 741.511 1178.03 738.275 1193.24C725.327 1252.31 702.963 1307.79 696.49 1369.54C689.574 1433.97 661.472 1496.84 623.954 1529.28C614.391 1537.55 603.797 1544.49 592.616 1544.71C581.875 1544.94 571.429 1539.12 562.012 1531.74C544.798 1518.09 530.527 1497.73 513.607 1483.41C493.744 1466.63 471.969 1453.66 450.929 1441.13C430.625 1428.82 410.174 1416.97 389.134 1408.24C373.391 1401.75 357.648 1396.16 342.2 1388.33C327.634 1380.95 311.008 1372 300.415 1354.33C294.382 1344.03 293.353 1333.3 293.353 1319.87C293.353 1299.07 295.118 1278.48 295.412 1257.68C295.707 1239.78 292.764 1224.12 288.203 1207.56C284.378 1193.92 281.729 1178.93 277.168 1165.95C253.627 1099.73 223.613 1039.77 194.334 979.366C169.91 929.028 153.285 862.582 116.355 829.919C111.941 826.116 107.674 822.089 104.584 816.048C101.789 810.679 100.759 803.967 98.9935 797.927C95.6095 786.069 91.3427 774.883 87.6644 763.25C83.9862 751.616 79.4251 738.193 79.5723 724.993C79.7194 707.095 93.4025 701.278 103.113 699.488C120.622 696.133 140.043 702.173 154.903 684.275C167.703 668.615 171.676 642.439 176.384 619.619C191.391 545.791 223.76 481.135 234.648 405.517C240.239 366.813 239.209 326.99 244.211 288.286C244.505 286.049 242.887 285.378 242.74 286.944Z" fill="url(#paint5_linear_1_1216)"/>
<path d="M257.159 309.54C251.273 349.362 251.273 390.751 241.563 429.008C231.999 467.04 218.758 503.06 207.723 540.198C202.868 556.53 198.159 573.085 194.481 590.088C191.686 603.064 189.773 616.711 187.272 629.911C184.623 643.781 181.239 657.876 174.618 668.391C166.821 680.696 156.227 684.946 145.192 685.618C129.008 686.736 106.203 680.472 93.9911 701.278C85.8989 715.149 93.2554 737.745 97.6693 751.616C101.642 764.144 106.35 776.002 110.911 787.859C114.884 798.374 117.679 809.56 121.357 820.075C125.183 830.814 131.951 837.302 138.866 842.895C149.018 851.173 157.551 861.016 165.496 873.769C180.798 898.602 191.097 929.028 200.955 959.231C210.96 990.104 222.289 1019.86 234.206 1049.39C248.184 1084.07 262.455 1118.52 276.138 1153.2C279.522 1161.92 282.906 1170.43 286.29 1179.15C289.233 1186.76 290.704 1194.81 293.353 1202.64C298.944 1219.2 305.712 1233.07 306.889 1252.31C308.066 1272.89 308.36 1293.47 310.567 1313.83C311.597 1323.23 313.804 1331.06 318.218 1337.99C328.37 1354.1 343.671 1362.38 357.207 1369.31C373.392 1377.59 390.164 1383.41 406.496 1391.02C429.301 1401.53 451.371 1416.74 472.704 1432.63C491.537 1446.72 510.223 1460.59 526.26 1481.62C539.06 1498.4 552.008 1517.87 568.045 1527.26C585.406 1537.33 601.885 1527.71 616.892 1513.39C634.106 1496.84 648.672 1474.02 660.001 1448.51C671.477 1422.56 679.57 1393.7 682.954 1363.05C686.043 1334.19 695.018 1307.12 703.552 1281.17C712.527 1253.65 722.385 1226.8 730.182 1198.39C738.422 1168.86 742.247 1137.31 751.075 1108.01C761.08 1075.12 773.292 1043.57 779.912 1008.45C786.533 973.325 786.386 936.635 780.942 901.286C775.057 863.03 763.875 828.353 754.459 792.11C744.307 752.958 741.217 710.675 741.806 668.838C742.394 628.792 745.925 588.969 748.574 549.147C749.898 529.012 750.339 508.877 751.369 488.518C752.252 471.515 755.783 455.631 757.696 439.075C765.199 377.104 718.853 344.664 684.719 347.125C658.677 348.915 633.812 364.128 607.77 367.036C591.586 369.05 578.344 363.457 563.778 352.942C531.409 329.898 501.836 297.682 472.557 267.032C459.904 253.833 447.398 240.409 434.451 227.881C421.945 215.8 409.733 208.864 394.725 207.969C373.392 206.627 352.058 213.115 331.312 219.379C321.455 222.511 311.744 225.643 301.886 228.552C293.647 231.013 285.996 234.816 279.375 242.646C265.692 259.202 260.837 285.601 257.159 309.54C256.864 311.106 258.483 311.777 258.777 310.211C263.044 282.917 268.929 252.714 286.732 239.067C295.707 232.131 306.153 230.565 315.716 227.433C325.721 224.301 335.726 220.945 345.878 218.261C366.329 212.668 388.693 206.851 409.438 213.786C422.68 218.261 433.862 230.789 444.897 242.199C473.146 271.059 500.806 301.486 529.938 328.332C542.886 340.413 556.274 351.823 570.399 360.772C584.229 369.497 596.588 371.958 611.595 369.497C636.166 365.47 659.707 351.599 684.425 350.033C706.347 348.467 728.123 357.864 743.571 382.026C751.958 395.225 757.549 410.439 756.519 429.231C755.783 444.444 752.252 459.21 750.486 474.423C748.427 491.874 748.721 509.548 747.838 527.222C746.808 546.238 745.484 565.255 744.16 584.271C738.863 659.442 735.626 734.166 755.783 805.309C765.788 840.434 775.94 876.006 780.648 913.815C785.503 953.19 782.855 992.342 773.292 1029.7C764.758 1062.81 752.546 1093.46 743.866 1126.58C739.893 1141.79 737.539 1157.45 734.449 1173.11C731.801 1186.31 728.27 1199.06 724.444 1211.37C709.143 1261.7 686.926 1310.48 680.747 1365.96C673.832 1428.82 644.258 1491.02 606.74 1519.88C597.03 1527.26 586.878 1532.41 575.843 1529.05C567.015 1526.37 559.07 1519.43 551.713 1511.6C537.736 1496.61 526.26 1476.48 511.841 1462.61C493.156 1444.71 472.557 1429.94 452.4 1416.52C434.598 1404.44 416.501 1393.48 397.668 1385.42C381.337 1378.49 364.858 1372.22 348.968 1363.05C335.873 1355.44 317.629 1344.26 313.068 1321.89C309.096 1302.42 309.537 1279.83 308.654 1259.69C307.919 1244.25 305.859 1232.4 300.856 1218.75C295.707 1204.88 292.176 1190.11 286.879 1176.69C280.258 1159.46 273.343 1142.24 266.428 1125.23C253.186 1092.57 239.797 1060.13 226.85 1027.47C216.256 1000.4 206.84 972.43 197.424 944.465C188.154 916.723 177.708 889.653 163.142 867.728C156.227 857.213 148.871 849.159 140.19 842.224C130.332 834.17 124.447 826.339 120.033 810.679C113.707 788.754 104.29 769.066 97.6693 747.365C94.4325 736.85 90.3128 723.203 92.2255 711.346C94.8739 695.685 108.851 690.987 117.826 689.645C134.893 687.184 154.167 693.895 169.469 678.458C182.122 665.483 186.683 641.992 190.361 620.514C196.247 586.732 204.486 554.963 214.491 523.419C224.937 490.084 237.002 457.197 244.8 422.072C252.892 386.053 253.039 347.572 258.483 310.658C259.071 308.645 257.306 307.973 257.159 309.54Z" fill="url(#paint6_linear_1_1216)"/>
<path d="M271.577 332.136C268.193 351.599 265.986 371.735 262.896 391.198C259.512 411.781 254.363 430.797 248.183 449.814C237.001 484.491 224.642 518.497 215.668 554.516C209.047 581.139 207.134 609.552 200.66 636.175C197.423 649.151 192.421 661.456 184.329 668.615C175.06 676.893 164.025 676.893 153.579 676.669C138.13 675.998 116.355 672.418 105.467 693.896C98.5518 707.766 104.731 728.125 108.998 741.548C116.355 764.816 126.507 785.622 134.746 808.218C138.277 817.614 140.337 828.577 145.045 836.854C150.93 846.922 159.022 852.515 166.82 858.555C207.281 890.548 219.346 957.888 235.53 1017.18C244.652 1050.51 255.246 1083.17 266.575 1114.94C272.901 1132.62 279.522 1150.07 286.29 1167.29C289.968 1176.47 293.647 1185.41 297.325 1194.59C299.385 1199.73 300.709 1205.1 302.769 1210.25C307.035 1220.99 314.686 1227.7 318.07 1239.56C318.953 1242.69 318.806 1245.37 319.247 1248.5C319.836 1252.53 321.307 1256.78 322.19 1260.81C324.103 1270.43 325.28 1280.5 326.898 1290.34C328.664 1301.3 330.576 1311.59 335.726 1319.87C340.581 1327.7 347.055 1333.3 353.529 1337.77C369.272 1349.18 386.486 1355.67 403.111 1362.83C423.563 1371.78 443.131 1383.63 462.111 1398.62C472.116 1406.68 481.826 1415.18 491.39 1424.57C499.923 1432.85 508.751 1440.68 516.108 1451.2C528.025 1468.65 537.736 1489.23 551.125 1504C564.366 1518.54 577.314 1520.33 592.174 1510.04C610.712 1497.28 626.455 1475.81 638.961 1451.42C651.32 1427.48 660.884 1399.52 665.592 1369.76C667.358 1357.9 668.24 1346.27 671.036 1335.09C674.273 1321.66 678.687 1308.91 683.248 1296.16C692.811 1269.76 703.552 1244.25 713.409 1218.08C721.943 1195.26 727.975 1173.11 732.683 1148.05C739.451 1112.03 752.399 1079.82 762.404 1045.81C772.114 1012.25 777.705 977.352 775.498 940.438C773.291 903.076 764.611 867.728 755.047 833.275C749.75 814.035 744.012 795.242 740.628 775.107C737.244 754.972 735.626 733.942 735.037 713.136C734.155 672.866 737.539 632.819 740.628 592.997C742.1 573.309 743.571 553.621 744.307 533.71C745.042 515.365 747.543 497.691 749.603 479.793C752.987 450.261 747.838 426.323 733.272 405.74C719.736 386.724 701.933 378.223 683.836 377.775C659.265 377.328 635.724 391.198 611.595 395.897C594.234 399.252 580.992 396.12 565.396 384.934C534.499 363.009 506.397 331.241 478.589 301.486C465.642 287.615 452.842 273.52 439.747 260.097C429.301 249.582 419.443 239.291 406.643 237.277C387.369 234.369 367.506 242.646 349.115 250.253C339.404 254.28 329.693 258.755 319.983 262.558C311.891 265.69 303.063 267.256 295.559 273.073C280.993 284.706 275.697 309.54 271.577 332.136C271.283 333.702 272.901 334.373 273.195 332.807C278.492 303.499 285.849 277.324 307.183 270.164C326.162 263.676 344.554 254.728 363.386 247.792C380.895 241.304 402.523 233.698 419.884 245.331C430.919 252.714 440.924 264.795 450.782 275.31C478.295 304.618 505.367 335.268 534.057 362.114C546.122 373.524 558.481 384.487 571.723 392.541C585.259 400.819 597.323 401.937 611.889 399.029C635.872 394.331 659.412 380.46 683.836 380.907C705.023 381.355 725.033 393.212 738.569 418.493C746.366 433.035 750.192 448.919 749.015 467.712C748.132 483.596 745.042 499.257 743.571 515.141C741.953 533.71 741.805 552.503 740.481 571.072C739.157 590.088 737.539 609.105 736.214 628.345C733.419 666.601 731.653 705.529 734.89 744.009C738.127 781.819 748.132 814.482 757.401 849.383C766.67 884.06 774.321 920.527 774.321 958.336C774.321 998.606 764.463 1034.85 752.987 1070.2C743.277 1100.18 734.302 1129.26 728.711 1161.48C724.444 1186.31 715.028 1209.35 706.494 1231.28C696.931 1255.89 686.779 1279.83 678.245 1305.11C674.714 1315.4 671.477 1325.69 668.976 1336.65C666.328 1347.84 665.592 1359.25 663.826 1370.66C658.53 1403.1 647.201 1433.52 632.929 1458.8C619.834 1481.85 601.737 1505.79 581.728 1513.39C563.189 1520.33 547.593 1497.96 535.97 1479.16C525.083 1461.71 515.519 1445.16 502.277 1431.73C483.298 1412.72 463.729 1395.49 442.984 1381.4C427.094 1370.66 410.762 1363.05 393.989 1355.89C377.511 1348.73 360.002 1341.8 345.584 1327.7C337.933 1320.32 333.225 1311.59 330.723 1298.39C329.105 1290.56 328.075 1282.29 326.898 1274.23C325.427 1264.39 322.925 1254.99 321.601 1245.37C320.13 1235.3 316.599 1228.59 312.038 1220.99C305.711 1210.7 302.18 1199.29 297.325 1187.43C283.495 1154.09 270.694 1119.86 258.924 1084.96C248.772 1054.76 239.65 1023.89 231.705 992.118C224.937 965.048 218.169 937.53 207.87 912.92C197.718 888.758 184.329 868.399 167.556 855.2C158.875 848.488 149.753 842 144.309 829.024C140.631 820.075 138.277 809.56 134.746 800.388C126.359 778.686 116.649 758.104 109.881 735.284C107.085 725.664 103.848 713.583 105.467 702.844C107.674 688.079 119.444 681.814 128.125 679.801C145.633 675.774 164.466 684.499 181.386 674.208C195.069 665.93 201.69 646.242 205.516 625.884C210.665 598.142 213.902 570.848 221.111 544.001C230.969 507.311 243.917 472.857 254.951 437.062C265.25 403.727 268.046 367.931 274.078 332.583C273.49 331.241 271.871 330.57 271.577 332.136Z" fill="url(#paint7_linear_1_1216)"/>
<path d="M285.996 354.732C281.876 373.301 278.492 392.317 273.637 410.439C268.488 429.455 261.425 447.129 254.952 465.027C243.475 497.019 232.293 530.578 226.555 566.15C222.583 590.983 222.141 618.948 213.461 641.544C202.573 669.733 181.828 668.615 162.848 667.272C147.841 666.154 127.39 664.812 117.532 686.065C111.352 699.265 116.208 717.834 120.18 731.033C127.242 754.524 137.394 775.554 146.664 797.255C150.489 806.204 154.462 815.153 157.551 824.773C161.23 835.959 164.319 845.803 171.087 853.857C178.15 862.135 186.536 867.281 194.334 873.321C204.044 880.928 212.725 891.219 220.082 903.524C234.353 927.462 242.593 957.665 248.625 988.315C254.51 1018.29 259.071 1048.94 265.839 1078.7C273.49 1112.03 282.906 1144.25 294.382 1174.9C300.121 1190.11 306.447 1205.33 312.774 1219.87C315.422 1226.13 320.277 1229.26 324.25 1233.29C331.312 1240.67 335.285 1254.77 339.257 1266.4C343.377 1278.48 346.761 1292.35 353.382 1302.2C364.858 1319.2 382.661 1326.36 397.521 1333.07C416.795 1342.02 435.922 1349.63 454.019 1363.72C474.029 1379.16 493.155 1399.74 509.487 1423.01C520.08 1438.22 526.848 1459.25 536.265 1476.25C544.21 1490.35 555.097 1505.79 568.339 1502.65C585.995 1498.63 603.356 1476.25 615.274 1457.46C629.398 1435.09 640.58 1408.02 647.201 1378.71C649.996 1366.41 650.732 1353.43 653.233 1340.9C655.44 1329.49 659.118 1318.53 663.091 1308.24C680.305 1261.93 705.023 1221.88 719.736 1173.33C722.973 1162.59 724.444 1151.41 726.651 1140C730.33 1121.65 735.773 1104.2 741.364 1086.98C751.958 1054.09 763.287 1021.43 766.376 984.511C769.319 949.387 764.611 914.486 756.96 881.599C748.279 844.013 735.185 808.889 730.918 769.29C726.651 729.467 728.858 688.974 731.948 649.151C735.038 609.328 736.95 568.834 741.364 529.235C744.601 499.257 744.895 473.528 732.095 448.472C721.06 426.77 704.876 413.794 687.073 410.439C664.121 406.188 641.757 417.822 619.393 424.086C608.506 427.218 596.441 430.574 585.406 427.442C579.521 425.652 573.783 422.296 568.192 418.493C538.177 397.686 511.105 366.142 484.622 336.834C471.674 322.516 458.874 307.974 445.927 293.879C437.099 284.259 427.094 271.283 416.353 267.256C400.611 261.216 382.808 270.164 367.948 277.771C350.145 286.944 332.783 298.801 314.392 305.736C297.325 311.777 291.293 331.017 285.996 354.732C285.702 356.298 287.32 356.969 287.614 355.403C290.557 341.979 293.647 326.766 301.15 317.146C308.213 307.974 318.365 306.855 326.898 302.604C344.701 293.879 361.915 282.022 380.012 274.415C395.902 267.703 412.087 263.453 426.653 277.1C437.246 286.944 447.251 298.354 457.256 309.316C484.033 339.071 510.37 369.497 538.472 396.344C549.801 407.083 561.424 417.374 573.783 424.757C588.349 433.258 603.062 431.021 618.216 426.77C641.757 420.282 665.298 407.53 689.427 413.347C710.026 418.493 728.711 437.957 737.539 467.264C742.836 484.491 741.953 503.06 740.04 521.405C738.422 537.513 736.803 553.398 735.92 569.953C733.861 607.762 729.594 645.348 727.534 683.157C725.621 719.4 725.768 756.314 731.948 791.439C738.275 827.682 750.928 860.793 758.137 896.812C765.788 935.069 767.848 974.891 760.197 1013.6C753.282 1048.27 740.629 1079.37 731.212 1112.48C724.444 1136.42 721.796 1162.15 713.41 1185.19C705.023 1208.01 695.018 1229.49 685.16 1250.97C675.45 1272.22 665.445 1293.7 657.794 1316.74C650.732 1337.77 649.702 1360.59 644.258 1382.51C636.608 1413.84 623.66 1442.47 607.476 1465.07C594.97 1482.52 572.753 1509.59 554.803 1497.06C540.531 1486.99 531.262 1463.05 522.582 1444.26C513.754 1425.25 503.307 1411.15 491.096 1396.83C474.911 1377.82 457.109 1361.26 438.129 1349.85C421.062 1339.56 402.817 1333.74 385.456 1324.57C377.07 1320.32 368.683 1315.4 361.18 1308.24C352.94 1300.41 348.674 1289.45 344.26 1276.47C340.287 1264.84 336.462 1252.76 332.195 1241.35C329.399 1233.74 323.22 1229.71 318.659 1225.01C311.891 1218.08 307.33 1202.64 302.916 1192.13C296.589 1176.69 290.704 1160.58 285.408 1144.25C275.256 1112.93 267.163 1080.26 260.69 1046.71C250.391 992.789 244.064 933.726 215.815 893.456C209.047 883.836 201.396 876.006 193.157 869.742C184.918 863.477 176.09 858.108 169.175 848.264C162.995 839.539 160.641 828.129 156.669 817.39C153.137 807.77 149.018 798.598 145.045 789.425C136.217 769.066 126.654 748.931 120.327 726.559C117.679 717.386 114.884 705.976 116.355 695.685C118.12 682.262 127.978 674.655 135.776 671.747C153.285 665.259 171.234 674.208 188.89 669.51C203.456 665.483 213.314 651.388 218.463 630.806C224.201 607.762 224.79 582.705 229.351 558.991C236.56 521.405 248.772 486.728 261.131 452.722C266.428 437.957 271.872 423.415 275.991 407.53C280.405 390.527 283.642 372.853 287.32 355.627C288.056 353.837 286.29 353.166 285.996 354.732Z" fill="url(#paint8_linear_1_1216)"/>
<path d="M300.562 377.104C293.794 392.541 289.233 409.991 282.906 425.875C276.138 442.878 268.488 458.986 262.308 476.437C251.862 505.968 244.358 537.066 240.974 570.4C238.473 594.786 237.443 624.541 225.526 643.334C211.548 665.482 189.626 658.771 171.676 657.428C157.11 656.31 138.424 657.428 129.449 678.011C123.417 691.658 128.272 710.227 132.245 723.65C139.307 747.141 149.459 768.171 159.023 789.425C163.437 799.269 167.998 808.889 172.117 818.956C175.796 827.905 178.297 837.749 181.975 846.698C191.833 871.084 210.813 878.019 226.114 891.443C245.83 908.893 259.218 937.082 266.869 969.522C273.49 997.711 276.138 1027.24 278.787 1056.55C281.876 1090.11 286.879 1123.22 294.824 1154.99C301.445 1180.94 311.155 1213.16 323.514 1231.95C325.28 1234.63 327.193 1235.53 330.282 1236.87C333.666 1238.21 337.05 1239.56 340.14 1241.79C342.788 1243.81 344.26 1247.16 346.319 1250.29C354.265 1261.26 361.033 1274.46 369.419 1284.52C375.598 1292.13 383.102 1296.83 390.459 1301.08C410.174 1312.27 431.214 1318.31 450.635 1331.06C470.203 1344.03 486.535 1363.95 500.659 1387.88C505.662 1396.39 510.37 1404.44 513.901 1414.51C517.432 1424.35 520.522 1434.42 523.906 1444.26C529.497 1459.7 536.853 1480.5 548.624 1486.55C562.454 1493.93 579.962 1473.12 589.82 1460.59C605.857 1440.46 618.805 1414.28 627.191 1385.42C633.665 1363.27 634.253 1338.66 641.757 1317.41C657.794 1271.55 682.806 1234.19 701.933 1191.45C706.053 1182.28 709.878 1173.11 712.968 1163.04C716.058 1152.75 717.235 1141.79 719.589 1131.05C727.093 1096.6 740.187 1065.72 748.868 1031.94C757.549 997.935 759.314 962.363 754.459 926.567C749.309 888.758 737.245 855.423 729.005 819.18C720.03 779.805 720.03 737.745 722.826 696.804C725.621 656.534 729.153 616.04 732.831 575.993C735.773 543.33 738.127 512.456 725.621 483.372C716.058 461.224 701.345 446.458 684.278 441.76C645.435 431.021 605.857 475.094 568.633 449.59C539.649 429.679 513.607 398.134 488.3 369.273C475.206 354.284 462.258 339.071 449.016 324.305C440.336 314.461 431.214 302.828 421.356 295.892C408.703 286.943 393.107 295.669 381.042 303.051C363.828 313.566 347.938 327.885 330.724 338.176C324.103 342.203 316.305 343.322 310.567 349.81C304.682 356.521 301.886 366.589 300.121 377.327C299.826 378.893 301.445 379.565 301.739 377.999C303.505 367.707 306.153 357.64 312.038 351.376C317.041 346.23 323.367 345.111 328.811 341.979C339.11 336.386 348.821 328.556 358.531 321.397C376.187 308.421 403.259 283.811 422.974 300.367C437.246 312.224 450.193 329.003 463.141 343.769C480.797 364.128 498.452 384.71 516.549 404.174C532.439 421.401 548.771 438.627 566.574 451.156C572.312 455.183 578.344 458.986 584.671 460.329C598.207 462.79 612.92 457.42 626.014 453.169C654.557 443.773 686.632 432.363 711.497 463.461C723.709 478.674 732.242 501.494 733.566 525.432C734.891 548.699 731.065 572.19 729.447 595.234C725.916 645.795 718.706 696.58 719.295 747.589C719.589 772.198 721.943 796.584 727.24 819.851C732.537 843.118 740.04 865.267 745.484 888.534C751.075 912.249 755.195 937.082 755.489 962.586C755.93 990.104 751.516 1016.28 744.454 1041.34C738.275 1063.26 730.624 1083.84 724.297 1105.77C719.295 1122.77 717.088 1140.89 712.674 1157.9C704.729 1187.88 689.427 1213.83 676.48 1238.88C663.68 1263.94 649.702 1289 639.992 1317.19C636.019 1328.82 634.548 1340.01 632.635 1352.54C629.545 1373.34 623.66 1393.03 616.304 1410.93C608.359 1429.94 598.501 1447.17 586.878 1461.04C578.05 1471.56 562.748 1489.45 550.683 1484.98C541.12 1481.4 534.499 1466.41 529.644 1454.55C524.641 1442.02 520.522 1428.82 516.108 1415.85C506.544 1388.33 489.624 1363.95 472.852 1346.72C450.635 1324.12 425.328 1315.62 400.316 1303.54C388.252 1297.72 375.893 1291.01 366.623 1277.36C358.826 1265.95 351.763 1252.98 343.818 1242.02C341.023 1238.21 327.634 1229.71 324.691 1233.07C325.133 1232.62 325.28 1231.72 324.838 1231.05C305.712 1194.81 293.647 1151.63 286.437 1106.66C280.405 1069.53 278.934 1031.05 273.049 993.908C267.605 959.902 257.894 927.014 240.239 903.747C221.994 879.809 192.421 874.216 181.092 839.315C172.853 813.811 161.524 791.438 151.078 767.724C145.34 754.748 139.601 741.548 135.04 727.454C131.362 716.268 127.243 702.844 128.125 689.868C129.302 672.194 142.25 663.021 152.402 660.561C164.172 657.652 176.09 660.561 187.86 661.456C206.84 663.022 225.084 656.757 233.618 628.568C238.032 613.802 239.65 597.471 241.268 581.586C243.328 561.228 245.682 541.316 250.243 521.852C256.57 495.453 265.398 470.62 275.403 447.129C280.111 435.943 284.966 425.204 289.086 413.347C293.058 401.49 296.884 389.408 301.739 378.446C302.622 376.88 301.151 375.761 300.562 377.104Z" fill="url(#paint9_linear_1_1216)"/>
<path d="M315.128 399.476C292.176 431.245 272.313 468.607 263.338 514.47C256.864 547.581 259.218 584.271 250.538 616.487C239.65 656.757 211.99 651.164 188.449 648.48C172.264 646.69 143.868 647.137 139.307 678.682C135.923 701.949 147.841 728.796 155.492 747.141C167.115 775.107 180.945 800.611 192.568 828.577C197.571 840.434 200.661 854.305 206.987 864.82C215.079 878.691 226.555 886.297 237.443 893.904C250.538 902.853 262.897 912.92 272.901 929.252C282.318 944.689 288.792 963.482 292.764 983.393C301.886 1027.47 298.796 1073.55 301.886 1118.97C305.123 1165.95 314.245 1212.04 335.432 1247.83C335.726 1247.16 336.167 1246.49 336.462 1245.82C338.227 1247.61 344.407 1245.37 347.055 1245.37C350.881 1245.37 353.97 1246.27 357.354 1248.06C370.596 1254.77 381.778 1268.64 394.873 1276.02C422.827 1291.91 453.872 1296.38 478.737 1323.45C496.981 1343.36 507.869 1374.24 514.637 1406.01C519.05 1426.81 524.347 1460.59 538.177 1471.56C544.945 1476.93 552.155 1471.33 558.334 1466.63C570.399 1457.46 580.992 1444.04 589.967 1428.83C599.236 1413.16 606.887 1395.27 612.478 1376.03C616.892 1360.81 617.922 1344.93 621.306 1329.27C627.338 1301.08 643.523 1276.47 656.029 1254.32C670.006 1229.71 684.572 1205.77 697.078 1179.6C701.639 1169.98 706.2 1159.91 708.701 1148.5C710.614 1140 711.644 1131.27 713.557 1123C716.499 1110.24 720.325 1097.72 724.297 1085.63C738.422 1041.56 751.516 999.501 747.397 949.163C745.484 925.896 740.629 903.524 735.038 881.599C728.858 857.661 720.913 834.617 717.382 809.113C709.878 754.748 718.412 699.489 723.414 645.571C727.534 601.274 734.008 552.726 716.941 512.904C704.435 483.596 683.248 470.62 660.884 471.515C645.583 471.962 630.869 478.674 616.009 483.372C603.65 487.176 589.526 492.321 577.02 486.504C560.394 478.898 545.093 461.895 530.968 446.905C497.128 410.886 466.084 369.05 432.096 333.254C427.388 328.332 422.386 322.292 416.501 320.726C408.997 318.712 401.052 322.739 394.137 326.99C373.244 340.19 355.589 363.009 335.138 377.328C326.016 383.592 318.512 384.71 314.392 400.595C313.951 402.161 315.569 402.832 316.011 401.266C320.277 384.487 334.255 381.355 343.965 373.301C353.823 365.023 363.239 355.403 373.097 346.678C382.661 337.952 392.666 329.227 403.553 324.753C412.234 321.397 418.855 323.187 426.211 330.346C458.433 361.891 487.27 401.937 518.315 436.39C533.616 453.393 549.359 470.62 566.426 482.925C571.576 486.504 576.873 490.084 582.611 490.979C596.735 493.663 612.184 487.176 625.867 482.701C652.792 473.528 683.101 465.922 705.612 496.796C731.801 532.815 726.798 585.837 722.826 633.49C718.559 684.052 710.32 734.837 713.41 786.069C716.352 836.407 735.185 878.69 742.983 927.015C747.249 953.638 747.985 981.156 743.866 1007.78C740.187 1031.72 732.831 1053.87 725.621 1076.01C719 1096.15 712.38 1116.73 708.701 1138.66C706.642 1150.74 703.552 1161.03 698.844 1171.54C686.632 1199.29 671.33 1223.67 657.059 1248.73C644.553 1270.65 630.722 1293.25 622.189 1319.65C618.363 1331.51 617.775 1344.71 615.274 1357.23C611.007 1378.49 603.945 1398.18 595.117 1415.85C585.995 1433.75 574.96 1449.85 562.012 1461.26C552.596 1469.54 542.591 1477.82 533.911 1463.95C521.552 1444.26 518.315 1413.61 512.282 1388.78C504.926 1358.58 490.654 1331.51 472.557 1314.95C448.428 1293.03 419.885 1288.33 394.137 1273.34C381.484 1265.95 370.449 1253.43 357.796 1245.82C352.205 1242.46 345.584 1242.69 339.552 1243.58C338.522 1243.81 331.754 1245.15 335.138 1248.5C336.02 1249.4 336.756 1247.61 336.168 1246.49C315.275 1211.37 306.3 1165.73 303.21 1119.42C300.709 1081.83 302.475 1044.02 297.914 1006.88C293.5 971.536 283.348 937.753 264.515 915.157C244.211 890.772 213.461 886.073 200.955 848.041C192.421 822.312 180.945 799.716 169.91 776.449C158.728 752.287 144.751 725.217 140.778 695.685C138.719 680.025 142.544 667.944 151.666 659.442C162.407 649.375 175.943 650.493 188.007 651.836C207.576 654.073 231.558 660.784 245.682 634.385C259.218 609.104 257.453 570.848 260.837 540.422C267.163 484.715 288.792 439.746 316.011 402.385C317.188 400.147 315.864 398.358 315.128 399.476Z" fill="url(#paint10_linear_1_1216)"/>
<path d="M329.841 421.625C315.275 429.231 301.592 436.838 292.028 456.302C284.083 472.41 279.67 492.321 277.315 512.009C273.196 545.343 276.727 584.719 265.398 615.145C251.126 653.178 219.64 639.978 196.394 637.965C180.062 636.622 153.432 641.768 150.931 673.313C148.724 699.712 162.407 728.572 171.382 749.155C184.035 777.791 198.454 804.414 211.107 833.275C216.256 845.132 219.64 859.003 225.526 870.189C233.618 885.626 245.094 894.799 256.864 902.853C270.4 912.025 284.083 920.303 295.118 935.74C305.417 950.058 312.774 968.627 317.188 988.762C336.609 1077.8 296.737 1188.1 346.761 1262.38C347.497 1263.49 348.674 1261.7 347.938 1260.59C345.143 1255.66 366.918 1248.28 369.566 1248.06C383.249 1246.04 398.257 1257.01 411.645 1260.59C440.777 1268.19 479.62 1275.35 498.452 1314.73C509.34 1337.55 509.781 1368.64 513.018 1395.71C514.637 1409.36 516.549 1423.23 519.933 1436.21C521.993 1444.04 524.789 1454.11 530.085 1458.13C536.559 1463.05 544.945 1454.33 550.389 1449.63C561.718 1439.79 571.576 1426.36 579.815 1410.93C587.76 1396.16 594.381 1379.83 599.089 1362.16C602.915 1347.84 603.209 1331.95 607.476 1318.31C615.127 1293.25 629.84 1272 642.199 1252.08C656.912 1228.37 672.213 1205.55 685.896 1180.72C690.899 1171.77 695.754 1162.59 699.579 1152.3C704.288 1139.55 705.465 1124.34 708.996 1110.91C720.619 1066.84 739.305 1027.47 739.893 978.247C740.187 955.204 736.95 932.384 732.095 910.459C726.798 886.297 718.706 863.701 713.704 839.539C702.816 786.964 711.35 731.705 717.382 679.13C722.385 635.056 726.504 585.614 710.908 545.12C699.874 516.483 680.158 502.389 658.677 501.941C644.406 501.717 630.575 507.311 616.745 511.785C604.386 515.812 589.673 522.076 577.167 516.483C561.571 509.771 547.3 493.216 534.352 479.345C501.101 443.326 470.645 401.713 437.835 364.575C427.535 352.942 419.002 341.979 405.613 348.915C386.486 358.759 370.449 382.026 354.559 400.147C346.467 409.096 338.963 416.703 329.841 421.625C328.811 422.072 329.252 424.757 330.282 424.086C348.526 414.466 362.945 392.541 378.394 375.538C391.194 361.443 409.438 339.518 425.181 354.955C439.159 368.602 451.812 385.158 464.759 401.042C480.944 420.73 496.981 440.641 513.46 459.881C528.761 477.555 544.21 495.453 561.13 509.324C566.279 513.575 571.87 517.826 577.755 519.839C588.055 523.419 599.825 519.615 609.977 516.483C637.343 508.205 667.799 493.216 693.106 519.839C720.325 548.252 722.09 605.301 718.265 650.493C713.998 701.502 703.846 752.063 707.083 803.743C710.026 852.067 729.153 893.009 735.479 940.214C739.01 967.061 738.569 994.355 733.125 1020.75C728.27 1044.69 720.178 1066.39 713.115 1088.99C710.32 1098.16 707.524 1107.34 705.317 1116.73C703.258 1125.46 702.228 1134.41 700.168 1143.13C697.52 1154.09 692.37 1163.71 687.662 1172.66C674.714 1197.27 659.854 1219.42 645.435 1242.24C632.635 1262.6 619.099 1283.18 609.094 1307.12C605.416 1315.84 603.798 1323.9 602.473 1333.97C599.825 1355 593.793 1374.91 586.142 1392.58C577.903 1411.6 567.309 1429.05 554.656 1441.8C547.3 1449.18 534.646 1463.73 527.143 1450.75C521.552 1441.13 519.198 1426.36 517.285 1414.28C515.225 1401.31 513.754 1388.33 512.577 1375.13C509.781 1347.17 506.25 1318.08 491.243 1299.07C468.585 1270.43 437.687 1264.39 409.586 1257.01C396.785 1253.65 383.396 1243.58 370.302 1244.92C363.975 1245.37 356.913 1248.28 351.175 1251.86C348.379 1253.65 343.965 1257.01 346.761 1262.15C347.202 1261.48 347.497 1261.03 347.938 1260.36C302.916 1193.47 332.048 1095.7 322.926 1013.6C318.953 978.023 307.919 944.912 288.203 923.882C265.692 899.944 234.795 895.47 221.112 854.976C212.431 829.024 200.513 806.204 189.184 782.937C176.531 756.762 162.407 729.467 155.197 698.594C152.549 687.407 150.636 674.208 154.903 663.245C162.26 644.453 177.561 640.202 190.656 640.426C211.99 640.873 238.032 654.52 257.159 633.714C274.961 614.026 274.961 574.204 276.58 544.225C277.904 521.181 279.964 497.69 286.437 476.437C289.969 464.579 294.824 453.617 301.445 445.339C309.831 434.601 320.277 429.679 330.577 424.309C331.459 423.638 331.018 421.177 329.841 421.625Z" fill="url(#paint11_linear_1_1216)"/>
</g>
<defs>
<linearGradient id="paint0_linear_1_1216" x1="419.455" y1="0" x2="419.455" y2="1624" gradientUnits="userSpaceOnUse">
<stop stop-color="#2AAE9A"/>
<stop offset="0.989583" stop-color="#005436"/>
</linearGradient>
<linearGradient id="paint1_linear_1_1216" x1="425.517" y1="37.1087" x2="425.517" y2="1608.02" gradientUnits="userSpaceOnUse">
<stop stop-color="#2AAE9A"/>
<stop offset="0.989583" stop-color="#005436"/>
</linearGradient>
<linearGradient id="paint2_linear_1_1216" x1="429.719" y1="74.2659" x2="429.719" y2="1592.39" gradientUnits="userSpaceOnUse">
<stop stop-color="#BDEE60"/>
<stop offset="0.989583" stop-color="#005436"/>
</linearGradient>
<linearGradient id="paint3_linear_1_1216" x1="432.374" y1="110.031" x2="432.374" y2="1577.12" gradientUnits="userSpaceOnUse">
<stop stop-color="#2AAE9A"/>
<stop offset="0.989583" stop-color="#005436"/>
</linearGradient>
<linearGradient id="paint4_linear_1_1216" x1="434.458" y1="145.157" x2="434.458" y2="1561.92" gradientUnits="userSpaceOnUse">
<stop stop-color="#2AAE9A"/>
<stop offset="0.989583" stop-color="#005436"/>
</linearGradient>
<linearGradient id="paint5_linear_1_1216" x1="435.98" y1="178.205" x2="435.98" y2="1547.26" gradientUnits="userSpaceOnUse">
<stop stop-color="#2AAE9A"/>
<stop offset="0.989583" stop-color="#005436"/>
</linearGradient>
<linearGradient id="paint6_linear_1_1216" x1="437.661" y1="207.791" x2="437.661" y2="1531.42" gradientUnits="userSpaceOnUse">
<stop stop-color="#2AAE9A"/>
<stop offset="0.989583" stop-color="#005436"/>
</linearGradient>
<linearGradient id="paint7_linear_1_1216" x1="439.168" y1="236.681" x2="439.168" y2="1516.56" gradientUnits="userSpaceOnUse">
<stop stop-color="#2AAE9A"/>
<stop offset="0.989583" stop-color="#005436"/>
</linearGradient>
<linearGradient id="paint8_linear_1_1216" x1="440.925" y1="265.268" x2="440.925" y2="1503.06" gradientUnits="userSpaceOnUse">
<stop stop-color="#2AAE9A"/>
<stop offset="0.989583" stop-color="#005436"/>
</linearGradient>
<linearGradient id="paint9_linear_1_1216" x1="441.862" y1="292.097" x2="441.862" y2="1488.09" gradientUnits="userSpaceOnUse">
<stop stop-color="#2AAE9A"/>
<stop offset="0.989583" stop-color="#005436"/>
</linearGradient>
<linearGradient id="paint10_linear_1_1216" x1="443.441" y1="320.192" x2="443.441" y2="1473.75" gradientUnits="userSpaceOnUse">
<stop stop-color="#2AAE9A"/>
<stop offset="0.989583" stop-color="#005436"/>
</linearGradient>
<linearGradient id="paint11_linear_1_1216" x1="445.302" y1="346.752" x2="445.302" y2="1459.59" gradientUnits="userSpaceOnUse">
<stop stop-color="#2AAE9A"/>
<stop offset="0.989583" stop-color="#005436"/>
</linearGradient>
</defs>
</svg>