<svg width="798" height="361" viewBox="0 0 798 361" fill="none" xmlns="http://www.w3.org/2000/svg">
<g clip-path="url(#clip0_1_1975)">
<g clip-path="url(#clip1_1_1975)">
<path d="M723 -64V422H75V-64H723ZM1128 -469H-330V827H1128V-469Z" fill="#4C4C4C"/>
</g>
<path d="M521.751 102.666L521.76 102.666C521.775 102.667 521.789 102.663 521.802 102.657L521.809 102.653C523.013 102.043 524.249 101.499 525.512 101.024C526.765 100.548 528.063 100.087 529.325 99.7171L529.222 99.732L529.241 99.7325C529.272 99.7334 529.304 99.7294 529.334 99.7204L529.359 99.7127C536.028 97.6208 542.953 96.4545 549.939 96.2465C553.421 96.1433 556.906 96.2544 560.374 96.5792L570.886 97.4673C577.897 98.0329 584.921 98.4372 591.941 98.8841C598.963 99.3096 605.982 99.771 612.991 100.355L612.841 99.8178C611.601 100.719 610.466 101.757 609.459 102.913C608.462 104.082 607.612 105.37 606.929 106.746C606.268 108.131 605.744 109.578 605.365 111.065C605.005 112.556 604.775 114.075 604.675 115.605C604.505 118.663 604.711 121.73 605.288 124.737C605.834 127.758 606.69 130.715 607.844 133.56L608.679 132.485C603.747 131.554 598.817 130.614 593.879 129.718L579.071 127L579.88 127.729L579.773 127.411L579.805 127.497C579.089 125.231 577.613 123.28 575.627 121.974C573.653 120.671 571.311 120.039 568.95 120.171C566.578 120.324 564.328 121.275 562.566 122.87C562.336 123.054 562.128 123.265 561.947 123.498L561.375 124.17C561.032 124.644 560.715 125.137 560.427 125.646C560.153 126.151 559.966 126.67 559.734 127.182C559.625 127.44 559.507 127.695 559.408 127.954L559.163 128.748C557.985 132.946 557.532 137.314 557.824 141.664C558.018 145.955 558.62 150.219 559.622 154.396L560.363 153.653L550.408 151.571L540.433 149.577C540.408 149.572 540.382 149.577 540.36 149.591C540.338 149.605 540.323 149.626 540.318 149.651C540.312 149.676 540.316 149.702 540.329 149.724C540.343 149.746 540.364 149.762 540.389 149.768L550.227 152.349L560.083 154.855C560.182 154.88 560.286 154.88 560.385 154.854C560.484 154.829 560.575 154.779 560.65 154.709C560.724 154.639 560.78 154.551 560.812 154.454C560.844 154.356 560.85 154.253 560.831 154.152L560.824 154.112C560.028 149.99 559.574 145.809 559.465 141.612C559.286 137.47 559.813 133.327 561.023 129.361L561.256 128.637C561.349 128.403 561.459 128.178 561.559 127.948C561.772 127.498 561.95 127.014 562.187 126.592C562.455 126.2 562.666 125.763 562.97 125.402L563.437 124.869C563.58 124.682 563.749 124.514 563.937 124.372C565.364 123.115 567.173 122.375 569.072 122.273C570.98 122.163 572.873 122.671 574.47 123.72C576.061 124.769 577.251 126.325 577.849 128.134L577.882 128.221C577.887 128.246 577.894 128.27 577.904 128.293L577.97 128.443C578.037 128.593 578.14 128.725 578.27 128.826C578.399 128.927 578.552 128.994 578.714 129.023L593.558 131.536C598.505 132.384 603.459 133.188 608.412 134.001C608.549 134.023 608.69 134.008 608.82 133.957C608.949 133.907 609.063 133.822 609.149 133.712C609.234 133.602 609.288 133.471 609.305 133.332C609.323 133.194 609.302 133.054 609.247 132.926C608.07 130.207 607.152 127.382 606.505 124.49C605.833 121.594 605.531 118.624 605.606 115.652C605.654 114.17 605.83 112.696 606.131 111.244C606.45 109.798 606.929 108.392 607.559 107.052C608.202 105.719 609.006 104.47 609.953 103.332C610.914 102.203 612 101.185 613.189 100.299L613.198 100.293C613.245 100.256 613.28 100.206 613.298 100.149C613.317 100.092 613.317 100.031 613.3 99.9735C613.283 99.9161 613.249 99.8652 613.202 99.8276C613.156 99.7899 613.099 99.7671 613.04 99.7623C606.029 99.1928 599.029 98.5052 592.032 97.7738C585.034 97.0651 578.039 96.3138 571.03 95.7237L560.514 94.8785C556.975 94.5765 553.419 94.5221 549.871 94.7155C546.326 94.9119 542.8 95.3751 539.324 96.1013C535.851 96.804 532.44 97.783 529.123 99.0289L529.241 99.0092L529.222 99.0097L529.195 99.0105C529.169 99.0113 529.144 99.0161 529.12 99.0246C527.805 99.4941 526.575 100.016 525.324 100.575C524.079 101.131 522.872 101.768 521.711 102.482L521.76 102.469L521.751 102.469C521.725 102.47 521.701 102.481 521.684 102.499C521.666 102.518 521.656 102.542 521.656 102.568C521.656 102.593 521.666 102.617 521.684 102.636C521.701 102.654 521.725 102.665 521.751 102.666L521.751 102.666Z" fill="url(#paint0_linear_1_1975)"/>
<path d="M478.763 128.866C479.323 126.059 480.447 123.396 482.068 121.037C482.876 119.906 483.806 118.867 484.841 117.939C485.889 117.023 487.013 116.198 488.199 115.47C490.637 114.045 493.238 112.919 495.945 112.118C498.691 111.286 501.499 110.675 504.341 110.289L504.396 110.284C505.368 110.013 506.336 109.724 507.301 109.416C506.289 109.466 505.281 109.538 504.277 109.627L504.331 109.621C501.363 109.492 498.391 109.775 495.5 110.462C492.564 111.123 489.756 112.258 487.185 113.823C484.564 115.402 482.382 117.615 480.84 120.258C479.356 122.877 478.637 125.859 478.763 128.866Z" fill="url(#paint1_linear_1_1975)"/>
<path d="M571.811 120.772C570.099 120.109 568.368 119.532 566.625 119.009C564.883 118.479 563.133 117.989 561.373 117.54C559.619 117.067 557.845 116.681 556.078 116.264C554.302 115.892 552.528 115.502 550.738 115.189L550.324 115.116L550.064 115.315C549.331 115.882 548.653 116.519 548.042 117.216C547.436 117.88 546.879 118.588 546.376 119.333C545.871 120.068 545.419 120.838 545.021 121.637C544.62 122.427 544.281 123.247 544.007 124.09C544.52 123.372 545.048 122.677 545.591 122.006C546.142 121.335 546.698 120.666 547.278 120.059C547.87 119.443 548.476 118.848 549.105 118.287C549.72 117.746 550.364 117.24 551.034 116.769L550.361 116.895C552.115 117.366 553.886 117.76 555.653 118.178C557.43 118.551 559.199 118.954 560.988 119.27C562.772 119.613 564.565 119.912 566.367 120.168C568.167 120.434 569.98 120.646 571.811 120.772Z" fill="url(#paint2_linear_1_1975)"/>
<path d="M596.735 98.7195C594.636 100.66 592.985 103.034 591.895 105.677C590.756 108.319 590.037 111.123 589.765 113.988C589.537 116.845 589.712 119.72 590.285 122.529C590.355 122.878 590.408 123.23 590.49 123.575L590.783 124.601L591.399 126.634C591.896 127.96 592.478 129.252 593.088 130.513C592.889 129.107 592.561 127.758 592.333 126.394L592.045 124.343L591.886 123.326C591.844 122.987 591.831 122.643 591.801 122.302C591.754 121.618 591.699 120.939 591.628 120.262C591.577 119.583 591.604 118.901 591.587 118.222C591.557 116.868 591.601 115.514 591.72 114.164C591.969 111.467 592.507 108.803 593.323 106.22C594.145 103.588 595.291 101.068 596.735 98.7195Z" fill="url(#paint3_linear_1_1975)"/>
<path d="M543.477 119.164C542.009 118.616 540.532 118.077 539.045 117.566C539.127 118.173 539.171 118.784 539.175 119.397C540.448 119.796 541.73 120.177 543.022 120.549C543.896 120.8 544.769 121.051 545.652 121.302C545.773 121.116 545.894 120.939 546.014 120.772C546.135 120.596 546.265 120.428 546.377 120.27C545.41 119.889 544.444 119.527 543.477 119.164Z" fill="url(#paint4_linear_1_1975)"/>
<path d="M528.832 116.023C529.966 116.414 531.081 116.804 532.215 117.185H532.224C532.577 116.626 532.988 116.106 533.451 115.633L533.032 115.494C531.778 115.085 530.523 114.676 529.269 114.276C529.12 114.908 528.962 115.494 528.832 116.023Z" fill="url(#paint5_linear_1_1975)"/>
<path d="M535.216 109.9C533.348 109.295 531.481 108.691 529.603 108.106C529.806 108.73 529.904 109.383 529.891 110.039C531.462 110.596 533.051 111.126 534.631 111.665C538.134 112.808 541.656 113.933 545.206 114.945C546.851 115.429 548.505 115.89 550.168 116.33C552.083 116.841 553.997 117.324 555.939 117.743C555.168 117.399 554.397 117.055 553.616 116.72C553.607 116.72 553.607 116.72 553.597 116.711C550.977 115.596 548.319 114.564 545.661 113.57C542.204 112.269 538.71 111.08 535.216 109.9Z" fill="url(#paint6_linear_1_1975)"/>
<path d="M520.599 106.61C520.757 106.675 520.915 106.74 521.073 106.796C521.479 106.456 521.937 106.183 522.429 105.987C521.928 105.848 521.426 105.708 520.924 105.569C520.803 105.959 520.692 106.312 520.599 106.61Z" fill="url(#paint7_linear_1_1975)"/>
<path d="M608.544 133.239C629.523 114.091 613.012 100.062 613.012 100.062C598.348 110.68 608.544 133.239 608.544 133.239Z" fill="url(#paint8_linear_1_1975)"/>
<path d="M560.224 154.25C577.537 159.414 578.891 128.01 578.891 128.01C578.871 127.945 578.851 127.881 578.83 127.818C576.227 119.822 565.07 118.788 561.22 126.264C556.004 136.395 560.224 154.25 560.224 154.25Z" fill="url(#paint9_linear_1_1975)"/>
<path d="M547.166 150.5C550.033 157.565 552.967 164.557 555.666 171.614C558.425 178.584 560.75 185.718 562.627 192.975C563.07 194.756 563.41 196.561 563.646 198.381C563.902 200.143 563.894 201.933 563.622 203.692C563.479 204.52 563.199 205.318 562.791 206.052C562.376 206.75 561.801 207.339 561.112 207.77C559.541 208.566 557.755 208.834 556.02 208.532C552.334 207.892 548.787 206.615 545.54 204.758C544.715 204.301 543.889 203.85 543.075 203.373L540.667 201.875C539.042 200.911 537.52 199.783 535.961 198.724C534.408 197.654 532.931 196.475 531.417 195.36L529.217 193.587C528.485 192.997 527.732 192.435 527.026 191.813C525.606 190.578 524.128 189.421 522.748 188.146L520.643 186.277L518.592 184.349C515.869 181.769 513.249 179.086 510.733 176.302C508.199 173.539 505.767 170.684 503.393 167.781C498.633 161.961 494.2 155.881 490.116 149.568C488.067 146.406 486.101 143.184 484.218 139.904C482.332 136.627 480.527 133.288 478.883 129.866L478.513 129.998C480.737 137.344 483.735 144.434 487.455 151.147C491.128 157.913 495.367 164.356 500.127 170.406C504.938 176.433 510.279 182.017 516.087 187.091L518.267 188.986L520.508 190.808C521.993 192.034 523.546 193.174 525.099 194.309C526.654 195.44 528.27 196.49 529.871 197.55C531.519 198.544 533.124 199.596 534.799 200.534C536.472 201.475 538.123 202.444 539.83 203.316C541.522 204.211 543.208 205.112 544.937 205.948C548.38 207.727 552.051 209.021 555.848 209.795C557.873 210.222 559.981 210.01 561.88 209.187C562.86 208.695 563.708 207.976 564.353 207.088C564.96 206.211 565.423 205.242 565.725 204.22C566.261 202.258 566.496 200.227 566.423 198.196C566.369 196.226 566.171 194.262 565.831 192.32C565.137 188.506 564.12 184.757 562.789 181.114C561.515 177.48 560.058 173.928 558.476 170.44C557.701 168.689 556.859 166.969 556.011 165.256C555.171 163.539 554.284 161.845 553.371 160.166C551.552 156.806 549.635 153.5 547.512 150.314L547.166 150.5Z" fill="url(#paint10_linear_1_1975)"/>
<path d="M593.353 104.132C588.002 103.327 582.636 102.715 577.264 102.171C571.894 101.615 566.515 101.173 561.135 100.753C555.752 100.371 550.367 100.012 544.973 99.768C539.581 99.5116 534.183 99.3247 528.771 99.3325C534.122 100.14 539.488 100.753 544.86 101.297C550.23 101.853 555.609 102.294 560.989 102.711C566.373 103.092 571.758 103.45 577.151 103.694C582.544 103.95 587.941 104.138 593.353 104.132Z" fill="url(#paint11_linear_1_1975)"/>
<path d="M527.624 194.286C528.393 187.461 529.133 180.625 529.796 173.782L530.05 171.216L530.177 169.933C530.19 169.833 530.194 169.704 530.214 169.627C530.237 169.567 530.256 169.504 530.27 169.441C530.334 169.269 530.408 169.101 530.489 168.937C531.248 167.5 532.243 166.063 533.166 164.628C535.05 161.757 536.868 158.812 538.492 155.747C539.296 154.209 540.053 152.641 540.715 151.023C541.37 149.384 541.919 147.752 542.487 146.141C543.629 142.906 544.761 139.668 545.85 136.415L547.504 131.542L547.917 130.324C548.078 129.863 548.186 129.385 548.239 128.9C548.354 127.912 548.215 126.912 547.835 125.993C547.456 125.015 546.736 124.208 545.808 123.72C544.849 123.299 543.765 123.256 542.775 123.599C541.073 124.238 539.519 125.218 538.21 126.481L539.232 127.055C539.468 125.397 539.62 123.729 539.686 122.057C539.718 121.222 539.723 120.378 539.69 119.543C539.619 118.7 539.585 117.844 539.443 117.008C539.321 116.118 539.003 115.266 538.513 114.513C538.22 114.09 537.788 113.784 537.292 113.647C536.816 113.549 536.323 113.576 535.861 113.726C534.191 114.293 532.791 115.457 531.927 116.994L532.224 116.832H532.215L532.022 116.833L531.92 116.991C531.349 117.906 530.833 118.853 530.373 119.829C530.159 120.293 529.909 120.738 529.624 121.162C529.448 121.37 529.45 121.367 529.2 121.382C529.122 121.39 529.043 121.374 528.974 121.335C528.905 121.297 528.849 121.239 528.814 121.168C528.641 120.723 528.571 120.244 528.611 119.768C528.624 119.246 528.665 118.726 528.734 118.208C528.867 117.162 529.073 116.126 529.35 115.109C529.633 114.073 529.861 113.022 530.033 111.962C530.228 110.878 530.243 109.769 530.077 108.68C529.973 108.116 529.764 107.576 529.459 107.089C529.139 106.597 528.703 106.191 528.188 105.909C527.173 105.412 526.043 105.194 524.916 105.278L524.974 105.281C524.493 105.234 524.008 105.25 523.531 105.328C523.06 105.404 522.598 105.535 522.156 105.717C521.263 106.091 520.488 106.703 519.916 107.485L519.952 107.443C519.878 107.522 519.835 107.625 519.83 107.733L519.837 109.318L520.564 107.907L520.573 107.889L520.583 107.871L520.598 107.827C521.9 104.377 522.776 100.782 523.209 97.1201C523.301 96.1714 523.288 95.2156 523.171 94.2698C523.083 93.2152 522.626 92.2253 521.88 91.4743C521.445 91.0976 520.913 90.8503 520.344 90.7606C519.793 90.6962 519.235 90.7531 518.708 90.9272C517.767 91.2801 516.907 91.8196 516.18 92.5132C514.814 93.8112 513.614 95.2729 512.606 96.865C511.59 98.4119 510.657 100.011 509.81 101.657C508.046 104.919 506.653 108.369 505.66 111.943C504.713 115.481 503.819 118.987 502.604 122.37C501.379 125.711 499.901 129.073 497.549 131.51C496.458 132.705 494.996 133.498 493.398 133.759C492.578 133.845 491.75 133.811 490.939 133.66C490.076 133.54 489.221 133.365 488.38 133.134C486.693 132.677 485.066 132.022 483.534 131.181C482.019 130.353 480.619 129.33 479.37 128.137L478.367 127.141L477.833 128.359C477.253 129.729 476.901 131.183 476.791 132.666C476.67 134.104 476.722 135.551 476.944 136.976C477.417 139.796 478.437 142.496 479.948 144.924C480.698 146.157 481.611 147.284 482.661 148.273C483.73 149.223 484.897 150.055 486.143 150.756C487.369 151.445 488.626 152.017 489.777 152.659C490.901 153.203 491.863 154.033 492.566 155.065C493.152 156.184 493.462 157.427 493.47 158.69C493.56 160.034 493.611 161.389 493.627 162.749C493.661 165.468 493.609 168.196 493.512 170.922C493.407 173.649 493.301 176.377 493.124 179.102C492.931 181.822 492.781 184.561 492.323 187.241L492.504 187.283C493.088 184.593 493.358 181.869 493.674 179.149C493.962 176.427 494.225 173.701 494.405 170.968C494.586 168.235 494.723 165.498 494.774 162.751C494.8 161.377 494.789 159.998 494.741 158.613C494.765 157.136 494.431 155.674 493.768 154.353C492.962 153.094 491.838 152.068 490.511 151.38C489.287 150.669 488.062 150.084 486.917 149.411C485.791 148.75 484.739 147.971 483.778 147.087C482.854 146.182 482.057 145.156 481.407 144.039C480.064 141.786 479.172 139.293 478.782 136.699C478.588 135.421 478.546 134.124 478.659 132.836C478.758 131.588 479.051 130.364 479.525 129.206L477.987 129.428C480.759 132.091 484.159 134.008 487.871 135.003C488.787 135.258 489.72 135.453 490.662 135.588C491.143 135.64 491.584 135.73 492.099 135.749L492.872 135.772C493.13 135.757 493.389 135.727 493.648 135.702C495.687 135.4 497.558 134.404 498.947 132.881C501.652 129.992 503.094 126.453 504.342 122.983C505.556 119.484 506.427 115.902 507.329 112.388C507.558 111.512 507.788 110.64 508.065 109.814C508.347 108.972 508.666 108.132 508.999 107.298C509.666 105.628 510.402 103.979 511.205 102.367C511.998 100.754 512.876 99.1841 513.834 97.6637C514.755 96.1559 515.849 94.7613 517.094 93.5082C517.672 92.921 518.36 92.454 519.118 92.1342C519.457 92.0113 519.817 91.9607 520.176 91.9857C520.513 92.0309 520.832 92.1678 521.097 92.3815C521.646 92.9372 521.987 93.6651 522.062 94.4427C522.192 95.3051 522.227 96.1791 522.167 97.0492C521.829 100.648 521.053 104.193 519.856 107.604L519.88 107.542L519.871 107.561L520.605 107.735C520.606 107.783 520.597 107.829 520.58 107.873C520.562 107.916 520.535 107.956 520.501 107.989L520.538 107.947C521.013 107.256 521.67 106.71 522.436 106.368C523.206 106.03 524.046 105.887 524.884 105.951L524.921 105.954L524.943 105.953C525.949 105.866 526.96 106.046 527.875 106.475C528.299 106.717 528.663 107.052 528.939 107.455C529.216 107.857 529.397 108.318 529.47 108.8C529.631 109.82 529.624 110.86 529.448 111.877C529.288 112.921 529.073 113.956 528.804 114.977C528.52 116.015 528.301 117.069 528.148 118.133C528.071 118.671 528.022 119.212 528.002 119.755C527.947 120.343 528.038 120.936 528.269 121.48C528.364 121.639 528.496 121.771 528.655 121.865C528.813 121.96 528.993 122.014 529.177 122.022C529.362 122.03 529.545 121.993 529.712 121.913C529.878 121.833 530.022 121.714 530.131 121.565C530.45 121.111 530.73 120.631 530.968 120.13C531.428 119.184 531.942 118.266 532.509 117.38L532.215 117.538L532.224 117.538L532.415 117.539L532.52 117.376C533.292 116.002 534.559 114.973 536.062 114.499C536.368 114.367 536.711 114.348 537.03 114.444C537.349 114.541 537.623 114.747 537.805 115.027C538.189 115.68 538.429 116.408 538.506 117.162C538.616 117.958 538.62 118.759 538.666 119.562C538.674 120.377 538.644 121.185 538.588 121.999C538.474 123.624 538.279 125.243 538.003 126.849L537.718 128.504L539.025 127.423C540.224 126.327 541.631 125.482 543.163 124.94C543.815 124.721 544.526 124.756 545.154 125.038C545.741 125.392 546.187 125.938 546.417 126.583C546.689 127.262 546.783 127.999 546.69 128.724C546.647 129.092 546.561 129.454 546.435 129.803L546.01 131.019L544.309 135.882C543.163 139.12 542.059 142.373 540.965 145.629C540.41 147.261 539.881 148.891 539.279 150.446C538.659 152.013 537.94 153.548 537.172 155.061C535.626 158.087 533.833 160.992 532.033 163.91C531.144 165.388 530.209 166.802 529.409 168.424C529.305 168.647 529.215 168.876 529.14 169.109C529.105 169.255 529.074 169.403 529.048 169.549C529.027 169.683 529.029 169.77 529.019 169.883L528.928 171.165L528.747 173.729C528.249 180.568 527.829 187.413 527.439 194.27L527.624 194.286Z" fill="url(#paint12_linear_1_1975)"/>
<path d="M516.427 117.742L520.65 107.901L519.781 107.572L516.427 117.742Z" fill="url(#paint13_linear_1_1975)"/>
<path d="M378.83 84.1235C382.256 85.575 385.826 86.7954 389.401 87.9151C392.995 89.0233 396.648 89.9316 400.342 90.6357C404.057 91.3962 407.84 91.7731 411.631 91.7605C413.555 91.743 415.473 91.5462 417.36 91.1727C419.304 90.8022 421.165 90.0819 422.853 89.0467L422.771 89.0938C425.607 87.6784 428.459 86.2929 431.28 84.8462L432.221 84.3635L431.655 83.5483C431.586 83.4388 431.501 83.3411 431.402 83.2587C431.354 83.2139 431.303 83.1729 431.249 83.1361C431.164 83.0773 431.063 83.0004 430.988 82.9606C430.831 82.8746 430.663 82.7683 430.515 82.7046C430.208 82.5531 429.905 82.4232 429.607 82.3099C429.006 82.0762 428.411 81.869 427.814 81.6918C426.622 81.3138 425.423 81.0279 424.224 80.7475C421.826 80.1944 419.42 79.7266 417.005 79.3441C414.593 78.9386 412.177 78.5827 409.758 78.2544C407.341 77.912 404.918 77.6267 402.498 77.3235L402.826 77.504L397.876 71.8394C396.224 69.9487 394.632 68.0293 392.923 66.1596C389.472 62.4603 385.474 59.3123 381.068 56.8257C378.858 55.5965 376.561 54.5294 374.196 53.633C371.82 52.761 369.39 52.0479 366.92 51.4983C361.971 50.2397 356.844 49.8332 351.758 50.2965C346.611 50.9326 341.704 52.8453 337.484 55.8605C333.286 58.9201 329.866 62.9239 327.5 67.5486C326.329 69.8592 325.416 72.2917 324.777 74.8023L324.363 76.7C324.248 77.3285 324.137 77.9524 324.041 78.5825C323.841 79.8393 323.678 81.1032 323.552 82.3741C323.28 84.9253 323.218 87.4946 323.366 90.056C323.504 92.6565 323.979 95.2283 324.777 97.7071L325.098 98.671L326.068 98.3793L339.178 94.4384L352.324 90.6114C356.706 89.3359 361.099 88.0982 365.51 86.9427C367.713 86.3479 369.922 85.7872 372.14 85.2604C373.252 85.0296 374.36 84.7318 375.48 84.5554L377.159 84.2545L378.83 84.1235ZM378.876 83.9226L377.125 83.9408L375.415 84.1362C374.27 84.2569 373.153 84.4966 372.019 84.6714C369.768 85.0846 367.521 85.5267 365.288 86.0201C360.822 87.0113 356.376 88.0845 351.942 89.1954C347.506 90.3034 343.095 91.5024 338.683 92.6933C334.273 93.899 329.863 95.0903 325.472 96.3732L326.763 97.0453C325.29 92.4761 325.3 87.4668 325.743 82.5897C325.861 81.3649 326.017 80.1424 326.211 78.9223C326.302 78.3128 326.41 77.702 326.519 77.0976L326.905 75.3206C327.477 72.9618 328.304 70.6722 329.371 68.4923C331.537 64.1215 334.7 60.3207 338.604 57.3962C342.543 54.4947 347.131 52.6001 351.97 51.8773C356.882 51.297 361.855 51.5355 366.689 52.5832C371.593 53.4574 376.328 55.1052 380.715 57.4648C385.102 59.8428 389.065 62.9313 392.442 66.6049C395.725 70.3533 398.855 74.3032 402.028 78.178L402.148 78.3247L402.356 78.3587C404.758 78.7498 407.162 79.1262 409.555 79.5532C411.951 79.9662 414.342 80.4065 416.719 80.8941C419.097 81.3763 421.466 81.8921 423.806 82.4712C424.974 82.7637 426.136 83.0826 427.267 83.4375C427.837 83.6083 428.393 83.806 428.926 84.0157C429.197 84.1195 429.452 84.2312 429.692 84.3508C429.824 84.4072 429.91 84.4713 430.022 84.5292C430.062 84.5533 430.102 84.5795 430.139 84.6077C430.161 84.6212 430.178 84.6335 430.166 84.626C430.153 84.604 430.2 84.6799 430.074 84.4977L430.449 83.2001C427.61 84.6107 424.802 86.0827 421.978 87.5247L421.933 87.5477L421.896 87.5719C418.966 89.4811 415.219 90.0312 411.595 90.1613C409.755 90.2063 407.913 90.1518 406.079 89.9983C404.237 89.8655 402.395 89.6429 400.561 89.3569C396.888 88.8074 393.254 87.9738 389.636 87.0775C386.012 86.1675 382.45 85.1097 378.876 83.9226Z" fill="url(#paint14_linear_1_1975)"/>
<path d="M356.186 55.833C357.945 57.9003 359.748 59.9098 361.559 61.9084L366.987 67.8947C368.796 69.8865 370.591 71.8908 372.371 73.9075C374.138 75.9367 375.886 77.9778 377.623 80.0666C376.334 77.674 374.855 75.3883 373.202 73.2311C371.576 71.0553 369.809 68.9952 368.005 66.9728C366.176 64.9718 364.29 63.0261 362.323 61.1627C360.371 59.2809 358.323 57.5019 356.186 55.833Z" fill="url(#paint15_linear_1_1975)"/>
<path d="M346.789 56.8223C345.333 59.463 344.046 62.1932 342.935 64.9963C341.806 67.7919 340.82 70.6419 339.976 73.5464C339.139 76.4527 338.487 79.4089 338.023 82.3974C337.561 85.3887 337.433 88.422 337.639 91.4417C337.965 88.4679 338.445 85.5131 339.078 82.5892C339.72 79.678 340.475 76.7938 341.296 73.9258C342.106 71.0538 343.023 68.2107 343.939 65.3619C344.881 62.5223 345.811 59.6715 346.789 56.8223Z" fill="url(#paint16_linear_1_1975)"/>
<path d="M402.427 77.8411C400.803 77.8635 399.182 77.9771 397.571 78.1812C395.965 78.3619 394.373 78.6216 392.784 78.8967C391.199 79.1969 389.618 79.5142 388.051 79.9102C386.471 80.2858 384.913 80.7509 383.386 81.303C385.01 81.2823 386.631 81.1694 388.242 80.9649C389.849 80.7839 391.441 80.5241 393.029 80.2475C394.614 79.9455 396.195 79.6282 397.762 79.2319C399.342 78.8559 400.899 78.3916 402.427 77.8411Z" fill="url(#paint17_linear_1_1975)"/>
<path d="M402.427 90.313C402.401 91.692 402.474 93.0686 402.572 94.4474C402.661 95.839 402.859 97.2214 403.166 98.5817C403.317 99.3166 403.595 100.02 403.985 100.661C404.336 101.185 404.678 101.798 405.019 102.382C405.705 103.561 406.368 104.761 407.03 105.959C408.367 108.35 409.683 110.752 410.976 113.166C411.61 114.377 412.267 115.578 412.875 116.796C413.18 117.404 413.47 118.018 413.754 118.627C413.892 118.933 414.025 119.239 414.139 119.541C414.19 119.689 414.251 119.845 414.281 119.977C414.3 120.033 414.312 120.091 414.319 120.149C414.321 120.16 414.33 120.216 414.33 120.191C414.33 120.168 414.336 120.145 414.347 120.125C414.358 120.105 414.374 120.088 414.394 120.076L414.646 119.899C414.177 120.01 413.695 120.056 413.214 120.034C412.7 120.013 412.188 119.944 411.687 119.828C411.176 119.708 410.674 119.557 410.182 119.375C409.685 119.186 409.199 118.969 408.726 118.727L408.657 118.692L408.611 118.701C408.128 118.792 407.676 119.002 407.294 119.311C406.929 119.618 406.669 120.031 406.548 120.492C406.729 120.075 407.034 119.723 407.422 119.486C407.792 119.253 408.212 119.113 408.648 119.078L408.532 119.053C409.444 119.685 410.44 120.186 411.491 120.541C412.03 120.715 412.585 120.837 413.147 120.907C413.743 120.99 414.347 120.97 414.936 120.848L415.105 120.811L415.188 120.671C415.254 120.559 415.3 120.436 415.323 120.308C415.331 120.237 415.332 120.165 415.325 120.094C415.322 119.981 415.307 119.869 415.281 119.759C415.243 119.573 415.196 119.388 415.139 119.206C415.031 118.858 414.911 118.525 414.786 118.197C414.536 117.541 414.253 116.906 413.967 116.275C413.389 115.015 412.793 113.77 412.154 112.548C410.898 110.093 409.556 107.689 408.173 105.307C407.471 104.121 406.756 102.944 406.019 101.774C405.643 101.187 405.275 100.623 404.827 100.029C404.482 99.5069 404.221 98.9332 404.054 98.3294C403.319 95.6999 402.776 93.0208 402.427 90.313Z" fill="url(#paint18_linear_1_1975)"/>
<path d="M398.965 123.918C402.921 117.818 408.629 120.492 408.629 120.492C408.629 120.492 410.834 150.789 397.316 151.613C387.029 152.24 378.177 145.993 371.953 139.266C368.729 135.764 366.689 131.337 366.121 126.611C365.277 119.711 364.008 109.286 363.686 106.278C363.192 101.662 361.321 89.5763 354.619 90.3129C354.619 90.3129 340.607 90.4524 347.86 114.686C347.86 114.686 349.838 129.852 336.98 128.039C336.98 128.039 339.618 120.456 336.156 114.686C332.694 108.916 328.142 101.621 328.357 96.6139C328.357 96.6139 373.742 83.1988 378.853 84.0231C375.707 85.6835 373.177 88.3088 371.634 91.5134C370.091 94.718 369.617 98.333 370.28 101.827C371.788 111.627 379.04 124.778 382.406 130.48C382.939 131.39 383.709 132.138 384.634 132.644C385.559 133.151 386.604 133.398 387.658 133.359C389.607 133.28 391.843 132.995 392.907 132.16C395.008 130.512 398.965 123.918 398.965 123.918Z" fill="url(#paint19_linear_1_1975)"/>
<path d="M399.45 94.8546C398.487 94.1127 397.384 93.5718 396.207 93.2642C395.01 92.9275 393.76 92.8231 392.523 92.9569C391.259 93.108 390.057 93.5872 389.036 94.3467C388.043 95.0881 387.281 96.0959 386.838 97.2531C387.671 96.4701 388.603 95.7978 389.608 95.2529C390.573 94.7605 391.618 94.4443 392.694 94.3192C393.795 94.1971 394.906 94.1951 396.008 94.3133C397.134 94.431 398.272 94.6158 399.45 94.8546Z" fill="url(#paint20_linear_1_1975)"/>
<path d="M360.554 111.719C358.344 112.585 355.787 112.487 354.15 111.037C353.325 110.305 352.666 109.405 352.217 108.397C351.735 107.361 351.348 106.283 351.063 105.176C350.425 102.945 350.048 100.647 349.94 98.3291C349.889 97.1655 349.918 95.9999 350.027 94.8404C350.082 94.2574 350.166 93.6776 350.28 93.1033C350.332 92.813 350.405 92.5302 350.482 92.2453C350.543 91.9571 350.66 91.6838 350.828 91.4417C350.414 91.8859 350.102 92.4158 349.916 92.9938C349.695 93.5584 349.51 94.1365 349.363 94.7246C349.082 95.907 348.916 97.1138 348.868 98.3281C348.78 100.765 349.074 103.2 349.74 105.545C350.401 107.824 351.362 110.346 353.504 111.887C354.558 112.642 355.841 113.006 357.134 112.919C358.362 112.838 359.545 112.423 360.554 111.719Z" fill="url(#paint21_linear_1_1975)"/>
<path d="M376.546 143.666C375.738 144.159 374.991 144.746 374.32 145.415C373.646 146.065 373.024 146.767 372.461 147.516C371.89 148.272 371.398 149.084 370.993 149.94C370.52 150.802 370.329 151.791 370.445 152.767C370.841 151.952 371.334 151.187 371.913 150.49C372.457 149.774 373.026 149.07 373.561 148.338C374.105 147.611 374.635 146.867 375.141 146.098C375.668 145.323 376.138 144.51 376.546 143.666Z" fill="url(#paint22_linear_1_1975)"/>
<path d="M336.98 128.039C336.107 129.39 335.311 130.79 334.597 132.232C334.236 132.921 333.879 133.602 333.477 134.25C333.08 134.933 332.595 135.56 332.034 136.117C332.907 135.995 333.71 135.575 334.307 134.928C334.918 134.329 335.426 133.634 335.812 132.871C336.2 132.13 336.499 131.345 336.702 130.533C336.924 129.721 337.018 128.88 336.98 128.039Z" fill="url(#paint23_linear_1_1975)"/>
<path d="M316.864 124.573C316.864 124.573 332.764 125.734 335.45 132.081L334.966 132.992L333.191 132.081C324.661 127.835 319.838 133.475 325.766 134.47C331.705 135.455 367.064 151.652 367.064 151.652C382.397 155.992 391.383 179.307 391.383 179.307C388.911 178.248 386.392 177.3 383.893 176.287C381.328 175.46 378.782 174.568 376.189 173.834C370.983 172.364 365.675 171.286 360.308 170.609C354.931 169.917 349.501 169.749 344.092 170.107C342.744 170.256 341.397 170.34 340.049 170.535C338.721 170.767 337.373 170.925 336.054 171.241C333.399 171.763 330.814 172.589 328.35 173.704C330.913 172.937 333.542 172.412 336.202 172.133C337.522 171.929 338.86 171.864 340.18 171.743C341.508 171.659 342.837 171.613 344.166 171.548C349.487 171.467 354.807 171.768 360.085 172.449L364.043 172.96L367.984 173.657L369.954 173.983L371.905 174.41C373.215 174.698 374.516 174.977 375.827 175.246C378.429 175.85 381.012 176.538 383.623 177.161C386.207 177.867 388.771 178.648 391.383 179.307C431.602 185.905 470.845 210.633 473.475 209.973C476.114 209.314 478.428 188.544 478.428 183.201C478.428 177.867 479.413 167.766 487.331 167.766C495.239 167.766 494.254 174.689 494.254 174.689C479.413 178.648 513.703 181.621 523.925 182.931C534.148 184.251 528.544 180.302 528.544 180.302C528.544 180.302 531.508 177.133 534.687 181.073C535.678 182.344 536.347 183.836 536.635 185.423C536.923 187.009 536.822 188.641 536.341 190.18C535.328 193.562 533.832 198.692 532.828 202.716C531.174 209.314 525.245 256.79 523.266 261.409C521.286 266.018 480.407 278.22 393.362 271.956C386.309 270.85 379.284 269.68 372.258 268.509C365.242 267.31 358.226 266.083 351.266 264.661C347.781 263.964 344.296 263.24 340.849 262.413C337.382 261.623 333.944 260.746 330.534 259.783C327.121 258.824 323.759 257.695 320.46 256.4C317.12 255.198 314.008 253.435 311.26 251.187C312.471 252.512 313.86 253.663 315.386 254.607C316.897 255.582 318.467 256.46 320.089 257.236C323.344 258.752 326.689 260.065 330.106 261.167C336.928 263.335 343.869 265.11 350.894 266.483C357.91 267.877 364.96 269.029 372.044 269.94C379.126 270.878 386.235 271.566 393.362 271.956C393.362 271.956 396.531 291.22 398.185 308.551H274.201C274.331 291.629 274.359 269.206 273.838 249.04C272.853 210.141 273.838 191.834 273.838 191.834C275.621 191.637 277.382 191.276 279.098 190.756C280.817 190.264 282.499 189.678 284.181 189.074C287.536 187.866 290.807 186.454 294.059 185.004C297.293 183.526 300.49 181.984 303.64 180.32C306.791 178.675 309.904 176.938 312.915 175.023C309.56 176.25 306.28 177.616 303.018 179.019C299.756 180.404 296.531 181.872 293.288 183.313L283.633 187.736C280.39 189.167 277.221 190.71 273.838 191.834C273.838 191.834 257.52 199.259 256.033 180.46C254.556 161.67 272.361 121.116 316.864 124.573ZM310.015 185.626C308.375 187.175 306.944 188.93 305.759 190.849C305.174 191.806 304.672 192.819 304.142 193.823C303.687 194.854 303.315 195.913 302.888 196.964C302.686 197.49 302.524 198.03 302.404 198.58L301.977 200.216C301.689 201.303 301.478 202.408 301.345 203.524L301.122 205.197L301.011 206.033L300.973 206.87L300.862 210.224L300.834 211.061L300.89 211.897L301.011 213.57C301.085 214.685 301.159 215.791 301.28 216.897C301.652 219.09 302.005 221.283 302.479 223.448C303.083 225.585 303.668 227.713 304.337 229.813C304.068 227.611 303.724 225.446 303.38 223.281C303.12 221.106 302.971 218.922 302.72 216.757L302.637 213.495L302.59 211.869L302.562 211.061L302.618 210.252L302.785 207.009L302.823 206.201L302.943 205.401L303.185 203.803C303.73 199.531 305.023 195.388 307.004 191.564C308.03 189.669 309.258 187.89 310.666 186.258C312.07 184.588 313.714 183.135 315.544 181.946C313.492 182.825 311.618 184.072 310.015 185.626ZM286.588 147.991C287.253 149.39 288.392 150.51 289.803 151.15C290.502 151.469 291.235 151.706 291.987 151.856C292.739 151.963 293.496 152.028 294.255 152.052C295.007 152.014 295.769 152.014 296.513 151.921L298.725 151.559C299.459 151.41 300.165 151.197 300.89 151.011L302.981 150.444C304.344 150.088 305.733 149.84 307.134 149.7C309.975 149.436 312.833 149.426 315.675 149.673C321.417 150.191 327.108 151.179 332.69 152.628C335.496 153.334 338.302 154.096 341.081 154.923C343.878 155.713 346.629 156.624 349.398 157.544C344.133 155.007 338.673 152.897 333.071 151.234C327.456 149.501 321.675 148.358 315.823 147.823C312.861 147.588 309.884 147.632 306.93 147.953C305.443 148.145 303.973 148.452 302.535 148.873L298.399 150.147L296.327 150.593C295.63 150.713 294.933 150.741 294.236 150.834C293.539 150.881 292.842 150.825 292.155 150.806C291.473 150.715 290.803 150.55 290.157 150.314C288.842 149.862 287.731 148.956 287.025 147.758C286.66 147.15 286.384 146.493 286.207 145.807C285.998 145.113 285.885 144.394 285.873 143.669C285.711 145.148 285.958 146.643 286.588 147.991H286.588Z" fill="url(#paint24_linear_1_1975)"/>
<path d="M450.399 308.554C432.101 308.024 413.802 307.668 395.503 307.486C386.354 307.36 377.204 307.332 368.055 307.257L340.607 307.181L313.158 307.254C304.009 307.33 294.86 307.355 285.71 307.482C267.411 307.662 249.113 308.019 230.814 308.554C249.113 309.088 267.411 309.446 285.71 309.626C294.86 309.754 304.009 309.779 313.158 309.855L340.607 309.927L368.055 309.851C377.204 309.777 386.354 309.749 395.503 309.622C413.802 309.441 432.101 309.086 450.399 308.554Z" fill="url(#paint25_linear_1_1975)"/>
<path d="M396.369 104.806C392.781 104.806 392.775 99.2305 396.369 99.2305C399.956 99.2305 399.962 104.806 396.369 104.806Z" fill="url(#paint26_linear_1_1975)"/>
</g>
<defs>
<linearGradient id="paint0_linear_1_1975" x1="547.577" y1="108.186" x2="571.149" y2="154.387" gradientUnits="userSpaceOnUse">
<stop stop-color="#9DE8EE"/>
<stop offset="0.0001" stop-color="#9DE8EE"/>
<stop offset="0.490049" stop-color="#FA7C0B"/>
<stop offset="1" stop-color="#9F8CED"/>
</linearGradient>
<linearGradient id="paint1_linear_1_1975" x1="486.823" y1="113.8" x2="494.586" y2="128.487" gradientUnits="userSpaceOnUse">
<stop stop-color="#9DE8EE"/>
<stop offset="0.0001" stop-color="#9DE8EE"/>
<stop offset="0.490049" stop-color="#FA7C0B"/>
<stop offset="1" stop-color="#9F8CED"/>
</linearGradient>
<linearGradient id="paint2_linear_1_1975" x1="551.87" y1="117.139" x2="553.913" y2="125.296" gradientUnits="userSpaceOnUse">
<stop stop-color="#9DE8EE"/>
<stop offset="0.0001" stop-color="#9DE8EE"/>
<stop offset="0.490049" stop-color="#FA7C0B"/>
<stop offset="1" stop-color="#9F8CED"/>
</linearGradient>
<linearGradient id="paint3_linear_1_1975" x1="591.667" y1="105.885" x2="599.798" y2="108.214" gradientUnits="userSpaceOnUse">
<stop stop-color="#9DE8EE"/>
<stop offset="0.0001" stop-color="#9DE8EE"/>
<stop offset="0.490049" stop-color="#FA7C0B"/>
<stop offset="1" stop-color="#9F8CED"/>
</linearGradient>
<linearGradient id="paint4_linear_1_1975" x1="541.118" y1="118.408" x2="542.352" y2="121.529" gradientUnits="userSpaceOnUse">
<stop stop-color="#9DE8EE"/>
<stop offset="0.0001" stop-color="#9DE8EE"/>
<stop offset="0.490049" stop-color="#FA7C0B"/>
<stop offset="1" stop-color="#9F8CED"/>
</linearGradient>
<linearGradient id="paint5_linear_1_1975" x1="530.138" y1="114.932" x2="531.247" y2="117.2" gradientUnits="userSpaceOnUse">
<stop stop-color="#9DE8EE"/>
<stop offset="0.0001" stop-color="#9DE8EE"/>
<stop offset="0.490049" stop-color="#FA7C0B"/>
<stop offset="1" stop-color="#9F8CED"/>
</linearGradient>
<linearGradient id="paint6_linear_1_1975" x1="537.051" y1="110.278" x2="539.497" y2="118.893" gradientUnits="userSpaceOnUse">
<stop stop-color="#9DE8EE"/>
<stop offset="0.0001" stop-color="#9DE8EE"/>
<stop offset="0.490049" stop-color="#FA7C0B"/>
<stop offset="1" stop-color="#9F8CED"/>
</linearGradient>
<linearGradient id="paint7_linear_1_1975" x1="521.116" y1="105.846" x2="521.601" y2="106.778" gradientUnits="userSpaceOnUse">
<stop stop-color="#9DE8EE"/>
<stop offset="0.0001" stop-color="#9DE8EE"/>
<stop offset="0.490049" stop-color="#FA7C0B"/>
<stop offset="1" stop-color="#9F8CED"/>
</linearGradient>
<linearGradient id="paint8_linear_1_1975" x1="609.079" y1="107.539" x2="622.58" y2="114.93" gradientUnits="userSpaceOnUse">
<stop stop-color="#9DE8EE"/>
<stop offset="0.0001" stop-color="#9DE8EE"/>
<stop offset="0.490049" stop-color="#FA7C0B"/>
<stop offset="1" stop-color="#9F8CED"/>
</linearGradient>
<linearGradient id="paint9_linear_1_1975" x1="564.348" y1="128.777" x2="580.088" y2="141.012" gradientUnits="userSpaceOnUse">
<stop stop-color="#9DE8EE"/>
<stop offset="0.0001" stop-color="#9DE8EE"/>
<stop offset="0.490049" stop-color="#FA7C0B"/>
<stop offset="1" stop-color="#9F8CED"/>
</linearGradient>
<linearGradient id="paint10_linear_1_1975" x1="503.378" y1="147.928" x2="539.879" y2="199.54" gradientUnits="userSpaceOnUse">
<stop stop-color="#9DE8EE"/>
<stop offset="0.0001" stop-color="#9DE8EE"/>
<stop offset="0.490049" stop-color="#FA7C0B"/>
<stop offset="1" stop-color="#9F8CED"/>
</linearGradient>
<linearGradient id="paint11_linear_1_1975" x1="547.035" y1="100.414" x2="547.302" y2="105.036" gradientUnits="userSpaceOnUse">
<stop stop-color="#9DE8EE"/>
<stop offset="0.0001" stop-color="#9DE8EE"/>
<stop offset="0.490049" stop-color="#FA7C0B"/>
<stop offset="1" stop-color="#9F8CED"/>
</linearGradient>
<linearGradient id="paint12_linear_1_1975" x1="496.963" y1="114.072" x2="546.648" y2="158.321" gradientUnits="userSpaceOnUse">
<stop stop-color="#9DE8EE"/>
<stop offset="0.0001" stop-color="#9DE8EE"/>
<stop offset="0.490049" stop-color="#FA7C0B"/>
<stop offset="1" stop-color="#9F8CED"/>
</linearGradient>
<linearGradient id="paint13_linear_1_1975" x1="517.621" y1="109.864" x2="521.709" y2="112.052" gradientUnits="userSpaceOnUse">
<stop stop-color="#9DE8EE"/>
<stop offset="0.0001" stop-color="#9DE8EE"/>
<stop offset="0.490049" stop-color="#FA7C0B"/>
<stop offset="1" stop-color="#9F8CED"/>
</linearGradient>
<linearGradient id="paint14_linear_1_1975" x1="354.095" y1="61.055" x2="368.587" y2="102.956" gradientUnits="userSpaceOnUse">
<stop stop-color="#9DE8EE"/>
<stop offset="0.0001" stop-color="#9DE8EE"/>
<stop offset="0.490049" stop-color="#FA7C0B"/>
<stop offset="1" stop-color="#9F8CED"/>
</linearGradient>
<linearGradient id="paint15_linear_1_1975" x1="362.248" y1="61.2945" x2="373.854" y2="74.5269" gradientUnits="userSpaceOnUse">
<stop stop-color="#9DE8EE"/>
<stop offset="0.0001" stop-color="#9DE8EE"/>
<stop offset="0.490049" stop-color="#FA7C0B"/>
<stop offset="1" stop-color="#9F8CED"/>
</linearGradient>
<linearGradient id="paint16_linear_1_1975" x1="340.158" y1="64.6244" x2="350.451" y2="68.167" gradientUnits="userSpaceOnUse">
<stop stop-color="#9DE8EE"/>
<stop offset="0.0001" stop-color="#9DE8EE"/>
<stop offset="0.490049" stop-color="#FA7C0B"/>
<stop offset="1" stop-color="#9F8CED"/>
</linearGradient>
<linearGradient id="paint17_linear_1_1975" x1="388.771" y1="78.6213" x2="389.234" y2="81.9005" gradientUnits="userSpaceOnUse">
<stop stop-color="#9DE8EE"/>
<stop offset="0.0001" stop-color="#9DE8EE"/>
<stop offset="0.490049" stop-color="#FA7C0B"/>
<stop offset="1" stop-color="#9F8CED"/>
</linearGradient>
<linearGradient id="paint18_linear_1_1975" x1="406.072" y1="97.2192" x2="418.486" y2="103.958" gradientUnits="userSpaceOnUse">
<stop stop-color="#9DE8EE"/>
<stop offset="0.0001" stop-color="#9DE8EE"/>
<stop offset="0.490049" stop-color="#FA7C0B"/>
<stop offset="1" stop-color="#9F8CED"/>
</linearGradient>
<linearGradient id="paint19_linear_1_1975" x1="351.091" y1="99.2374" x2="381.018" y2="145.073" gradientUnits="userSpaceOnUse">
<stop stop-color="#9DE8EE"/>
<stop offset="0.0001" stop-color="#9DE8EE"/>
<stop offset="0.490049" stop-color="#FA7C0B"/>
<stop offset="1" stop-color="#9F8CED"/>
</linearGradient>
<linearGradient id="paint20_linear_1_1975" x1="390.405" y1="93.8814" x2="391.455" y2="97.8051" gradientUnits="userSpaceOnUse">
<stop stop-color="#9DE8EE"/>
<stop offset="0.0001" stop-color="#9DE8EE"/>
<stop offset="0.490049" stop-color="#FA7C0B"/>
<stop offset="1" stop-color="#9F8CED"/>
</linearGradient>
<linearGradient id="paint21_linear_1_1975" x1="352.162" y1="96.2849" x2="361.924" y2="103.136" gradientUnits="userSpaceOnUse">
<stop stop-color="#9DE8EE"/>
<stop offset="0.0001" stop-color="#9DE8EE"/>
<stop offset="0.490049" stop-color="#FA7C0B"/>
<stop offset="1" stop-color="#9F8CED"/>
</linearGradient>
<linearGradient id="paint22_linear_1_1975" x1="372.147" y1="145.717" x2="376.5" y2="149.498" gradientUnits="userSpaceOnUse">
<stop stop-color="#9DE8EE"/>
<stop offset="0.0001" stop-color="#9DE8EE"/>
<stop offset="0.490049" stop-color="#FA7C0B"/>
<stop offset="1" stop-color="#9F8CED"/>
</linearGradient>
<linearGradient id="paint23_linear_1_1975" x1="333.435" y1="129.86" x2="337.232" y2="132.86" gradientUnits="userSpaceOnUse">
<stop stop-color="#9DE8EE"/>
<stop offset="0.0001" stop-color="#9DE8EE"/>
<stop offset="0.490049" stop-color="#FA7C0B"/>
<stop offset="1" stop-color="#9F8CED"/>
</linearGradient>
<linearGradient id="paint24_linear_1_1975" x1="335.375" y1="165.875" x2="407.296" y2="307.219" gradientUnits="userSpaceOnUse">
<stop stop-color="#9DE8EE"/>
<stop offset="0.0001" stop-color="#9DE8EE"/>
<stop offset="0.490049" stop-color="#FA7C0B"/>
<stop offset="1" stop-color="#9F8CED"/>
</linearGradient>
<linearGradient id="paint25_linear_1_1975" x1="292.915" y1="307.8" x2="292.94" y2="310.453" gradientUnits="userSpaceOnUse">
<stop stop-color="#9DE8EE"/>
<stop offset="0.0001" stop-color="#9DE8EE"/>
<stop offset="0.490049" stop-color="#FA7C0B"/>
<stop offset="1" stop-color="#9F8CED"/>
</linearGradient>
<linearGradient id="paint26_linear_1_1975" x1="395.199" y1="100.487" x2="397.829" y2="103.761" gradientUnits="userSpaceOnUse">
<stop stop-color="#9DE8EE"/>
<stop offset="0.0001" stop-color="#9DE8EE"/>
<stop offset="0.490049" stop-color="#FA7C0B"/>
<stop offset="1" stop-color="#9F8CED"/>
</linearGradient>
<clipPath id="clip0_1_1975">
<rect width="798" height="361" fill="white"/>
</clipPath>
<clipPath id="clip1_1_1975">
<rect width="648" height="486" fill="white" transform="translate(75 -64)"/>
</clipPath>
</defs>
</svg>